<svg xmlns="http://www.w3.org/2000/svg" width="820" height="536" viewBox="0 0 820 536" font-family="system-ui, -apple-system, Segoe UI, sans-serif" role="img" aria-label="wat/conv: seconds per iteration for 18 runners on a log scale, fastest first. wasmtime is fastest at 7.64 ns, then wasmer at 7.65 ns; pywasm-pypy is slowest at 807 µs, a span of 106000x. The table below carries every number.">
<title>wat/conv: seconds per iteration for 18 runners on a log scale, fastest first. wasmtime is fastest at 7.64 ns, then wasmer at 7.65 ns; pywasm-pypy is slowest at 807 µs, a span of 106000x. The table below carries every number.</title>
<rect width="820" height="536" fill="#1a1a19"/>
<line x1="168.0" y1="68.0" x2="168.0" y2="506.0" stroke="#c3c2b7" stroke-width="1" stroke-opacity="0.25"/>
<text x="168.0" y="522.0" text-anchor="middle" font-size="11" fill="#c3c2b7">1 ns</text>
<line x1="261.1" y1="68.0" x2="261.1" y2="506.0" stroke="#c3c2b7" stroke-width="1" stroke-opacity="0.25"/>
<text x="261.1" y="522.0" text-anchor="middle" font-size="11" fill="#c3c2b7">10 ns</text>
<line x1="354.2" y1="68.0" x2="354.2" y2="506.0" stroke="#c3c2b7" stroke-width="1" stroke-opacity="0.25"/>
<text x="354.2" y="522.0" text-anchor="middle" font-size="11" fill="#c3c2b7">100 ns</text>
<line x1="447.3" y1="68.0" x2="447.3" y2="506.0" stroke="#c3c2b7" stroke-width="1" stroke-opacity="0.25"/>
<text x="447.3" y="522.0" text-anchor="middle" font-size="11" fill="#c3c2b7">1 µs</text>
<line x1="540.5" y1="68.0" x2="540.5" y2="506.0" stroke="#c3c2b7" stroke-width="1" stroke-opacity="0.25"/>
<text x="540.5" y="522.0" text-anchor="middle" font-size="11" fill="#c3c2b7">10 µs</text>
<line x1="633.6" y1="68.0" x2="633.6" y2="506.0" stroke="#c3c2b7" stroke-width="1" stroke-opacity="0.25"/>
<text x="633.6" y="522.0" text-anchor="middle" font-size="11" fill="#c3c2b7">100 µs</text>
<line x1="168.0" y1="506.0" x2="726.0" y2="506.0" stroke="#c3c2b7" stroke-width="1" stroke-opacity="0.4"/>
<text x="152.0" y="90.0" text-anchor="end" font-size="12" fill="#ffffff">wasmtime</text>
<line x1="168.0" y1="86.0" x2="250.2" y2="86.0" stroke="#3987e5" stroke-width="2" stroke-opacity="0.45"/>
<circle cx="250.2" cy="86.0" r="5.5" fill="#3987e5" stroke="#1a1a19" stroke-width="2"/>
<text x="806.0" y="90.0" text-anchor="end" font-size="12" font-weight="600" fill="#ffffff">7.64 ns</text>
<text x="152.0" y="114.0" text-anchor="end" font-size="12" fill="#ffffff">wasmer</text>
<line x1="168.0" y1="110.0" x2="250.3" y2="110.0" stroke="#c98500" stroke-width="2" stroke-opacity="0.45"/>
<circle cx="250.3" cy="110.0" r="5.5" fill="#c98500" stroke="#1a1a19" stroke-width="2"/>
<text x="806.0" y="114.0" text-anchor="end" font-size="12" font-weight="600" fill="#ffffff">7.65 ns</text>
<text x="152.0" y="138.0" text-anchor="end" font-size="12" fill="#ffffff">dewasm-go</text>
<line x1="168.0" y1="134.0" x2="263.3" y2="134.0" stroke="#008300" stroke-width="2" stroke-opacity="0.45"/>
<circle cx="263.3" cy="134.0" r="5.5" fill="#008300" stroke="#1a1a19" stroke-width="2"/>
<text x="806.0" y="138.0" text-anchor="end" font-size="12" font-weight="600" fill="#ffffff">10.6 ns</text>
<text x="152.0" y="162.0" text-anchor="end" font-size="12" fill="#ffffff">dewasm-java</text>
<line x1="168.0" y1="158.0" x2="285.6" y2="158.0" stroke="#008300" stroke-width="2" stroke-opacity="0.45"/>
<circle cx="285.6" cy="158.0" r="5.5" fill="#008300" stroke="#1a1a19" stroke-width="2"/>
<text x="806.0" y="162.0" text-anchor="end" font-size="12" font-weight="600" fill="#ffffff">18.3 ns</text>
<text x="152.0" y="186.0" text-anchor="end" font-size="12" fill="#ffffff">wasm3</text>
<line x1="168.0" y1="182.0" x2="292.0" y2="182.0" stroke="#c98500" stroke-width="2" stroke-opacity="0.45"/>
<circle cx="292.0" cy="182.0" r="5.5" fill="#c98500" stroke="#1a1a19" stroke-width="2"/>
<text x="806.0" y="186.0" text-anchor="end" font-size="12" font-weight="600" fill="#ffffff">21.5 ns</text>
<text x="152.0" y="210.0" text-anchor="end" font-size="12" fill="#ffffff">wazero</text>
<line x1="168.0" y1="206.0" x2="331.6" y2="206.0" stroke="#c98500" stroke-width="2" stroke-opacity="0.45"/>
<circle cx="331.6" cy="206.0" r="5.5" fill="#c98500" stroke="#1a1a19" stroke-width="2"/>
<text x="806.0" y="210.0" text-anchor="end" font-size="12" font-weight="600" fill="#ffffff">57.1 ns</text>
<text x="152.0" y="234.0" text-anchor="end" font-size="12" fill="#ffffff">wasmedge</text>
<line x1="168.0" y1="230.0" x2="389.1" y2="230.0" stroke="#c98500" stroke-width="2" stroke-opacity="0.45"/>
<circle cx="389.1" cy="230.0" r="5.5" fill="#c98500" stroke="#1a1a19" stroke-width="2"/>
<text x="806.0" y="234.0" text-anchor="end" font-size="12" font-weight="600" fill="#ffffff">237 ns</text>
<text x="152.0" y="258.0" text-anchor="end" font-size="12" fill="#ffffff">dewasm-pypy</text>
<line x1="168.0" y1="254.0" x2="392.5" y2="254.0" stroke="#008300" stroke-width="2" stroke-opacity="0.45"/>
<circle cx="392.5" cy="254.0" r="5.5" fill="#008300" stroke="#1a1a19" stroke-width="2"/>
<text x="806.0" y="258.0" text-anchor="end" font-size="12" font-weight="600" fill="#ffffff">258 ns</text>
<text x="152.0" y="282.0" text-anchor="end" font-size="12" fill="#ffffff">dewasm-ruby-yjit</text>
<line x1="168.0" y1="278.0" x2="441.9" y2="278.0" stroke="#008300" stroke-width="2" stroke-opacity="0.45"/>
<circle cx="441.9" cy="278.0" r="5.5" fill="#008300" stroke="#1a1a19" stroke-width="2"/>
<text x="806.0" y="282.0" text-anchor="end" font-size="12" font-weight="600" fill="#ffffff">874 ns</text>
<text x="152.0" y="306.0" text-anchor="end" font-size="12" fill="#ffffff">dewasm-ruby-zjit</text>
<line x1="168.0" y1="302.0" x2="447.3" y2="302.0" stroke="#008300" stroke-width="2" stroke-opacity="0.45"/>
<circle cx="447.3" cy="302.0" r="5.5" fill="#008300" stroke="#1a1a19" stroke-width="2"/>
<text x="806.0" y="306.0" text-anchor="end" font-size="12" font-weight="600" fill="#ffffff">999 ns</text>
<text x="152.0" y="330.0" text-anchor="end" font-size="12" fill="#ffffff">dewasm-ruby</text>
<line x1="168.0" y1="326.0" x2="460.2" y2="326.0" stroke="#008300" stroke-width="2" stroke-opacity="0.45"/>
<circle cx="460.2" cy="326.0" r="5.5" fill="#008300" stroke="#1a1a19" stroke-width="2"/>
<text x="806.0" y="330.0" text-anchor="end" font-size="12" font-weight="600" fill="#ffffff">1.37 µs</text>
<text x="152.0" y="354.0" text-anchor="end" font-size="12" fill="#ffffff">dewasm-python</text>
<line x1="168.0" y1="350.0" x2="461.5" y2="350.0" stroke="#008300" stroke-width="2" stroke-opacity="0.45"/>
<circle cx="461.5" cy="350.0" r="5.5" fill="#008300" stroke="#1a1a19" stroke-width="2"/>
<text x="806.0" y="354.0" text-anchor="end" font-size="12" font-weight="600" fill="#ffffff">1.42 µs</text>
<text x="152.0" y="378.0" text-anchor="end" font-size="12" fill="#ffffff">dewasm-perl</text>
<line x1="168.0" y1="374.0" x2="480.3" y2="374.0" stroke="#008300" stroke-width="2" stroke-opacity="0.45"/>
<circle cx="480.3" cy="374.0" r="5.5" fill="#008300" stroke="#1a1a19" stroke-width="2"/>
<text x="806.0" y="378.0" text-anchor="end" font-size="12" font-weight="600" fill="#ffffff">2.26 µs</text>
<text x="152.0" y="402.0" text-anchor="end" font-size="12" fill="#ffffff">wardite-yjit</text>
<line x1="168.0" y1="398.0" x2="558.7" y2="398.0" stroke="#d55181" stroke-width="2" stroke-opacity="0.45"/>
<circle cx="558.7" cy="398.0" r="5.5" fill="#d55181" stroke="#1a1a19" stroke-width="2"/>
<text x="806.0" y="402.0" text-anchor="end" font-size="12" font-weight="600" fill="#ffffff">15.7 µs</text>
<text x="152.0" y="426.0" text-anchor="end" font-size="12" fill="#ffffff">wardite</text>
<line x1="168.0" y1="422.0" x2="579.1" y2="422.0" stroke="#d55181" stroke-width="2" stroke-opacity="0.45"/>
<circle cx="579.1" cy="422.0" r="5.5" fill="#d55181" stroke="#1a1a19" stroke-width="2"/>
<text x="806.0" y="426.0" text-anchor="end" font-size="12" font-weight="600" fill="#ffffff">26.0 µs</text>
<text x="152.0" y="450.0" text-anchor="end" font-size="12" fill="#ffffff">pywasm-cpython</text>
<line x1="168.0" y1="446.0" x2="634.3" y2="446.0" stroke="#d55181" stroke-width="2" stroke-opacity="0.45"/>
<circle cx="634.3" cy="446.0" r="5.5" fill="#d55181" stroke="#1a1a19" stroke-width="2"/>
<text x="806.0" y="450.0" text-anchor="end" font-size="12" font-weight="600" fill="#ffffff">102 µs</text>
<text x="152.0" y="474.0" text-anchor="end" font-size="12" fill="#ffffff">dewasm-bash</text>
<line x1="168.0" y1="470.0" x2="700.6" y2="470.0" stroke="#008300" stroke-width="2" stroke-opacity="0.45"/>
<circle cx="700.6" cy="470.0" r="5.5" fill="#008300" stroke="#1a1a19" stroke-width="2"/>
<text x="806.0" y="474.0" text-anchor="end" font-size="12" font-weight="600" fill="#ffffff">524 µs</text>
<text x="152.0" y="498.0" text-anchor="end" font-size="12" fill="#ffffff">pywasm-pypy</text>
<line x1="168.0" y1="494.0" x2="718.0" y2="494.0" stroke="#d55181" stroke-width="2" stroke-opacity="0.45"/>
<circle cx="718.0" cy="494.0" r="5.5" fill="#d55181" stroke="#1a1a19" stroke-width="2"/>
<text x="806.0" y="498.0" text-anchor="end" font-size="12" font-weight="600" fill="#ffffff">807 µs</text>
<text x="14.0" y="24" font-size="15" font-weight="600" fill="#ffffff">wat/conv: seconds per iteration, median of the timed runs (log scale)</text>
<circle cx="19.5" cy="48.0" r="5.5" fill="#3987e5" stroke="#1a1a19" stroke-width="2"/>
<text x="31.0" y="52.0" font-size="12" fill="#c3c2b7">wasmtime (baseline)</text>
<circle cx="179.9" cy="48.0" r="5.5" fill="#008300" stroke="#1a1a19" stroke-width="2"/>
<text x="191.4" y="52.0" font-size="12" fill="#c3c2b7">dewasm backends</text>
<circle cx="313.9" cy="48.0" r="5.5" fill="#c98500" stroke="#1a1a19" stroke-width="2"/>
<text x="325.4" y="52.0" font-size="12" fill="#c3c2b7">native runtimes</text>
<circle cx="447.9" cy="48.0" r="5.5" fill="#d55181" stroke="#1a1a19" stroke-width="2"/>
<text x="459.4" y="52.0" font-size="12" fill="#c3c2b7">wasm interpreters in a host language</text>
</svg>
