<svg xmlns="http://www.w3.org/2000/svg" width="820" height="776" viewBox="0 0 820 776" font-family="system-ui, -apple-system, Segoe UI, sans-serif" role="img" aria-label="wat/conv: seconds per iteration for 28 runners on a log scale, fastest first. wasmer is fastest at 7.89 ns, then wasmtime at 8.35 ns; pywasm-pypy is slowest at 801 µs, a span of 102000x. The table below carries every number.">
<title>wat/conv: seconds per iteration for 28 runners on a log scale, fastest first. wasmer is fastest at 7.89 ns, then wasmtime at 8.35 ns; pywasm-pypy is slowest at 801 µs, a span of 102000x. The table below carries every number.</title>
<rect width="820" height="776" fill="#fcfcfb"/>
<line x1="168.0" y1="68.0" x2="168.0" y2="746.0" stroke="#52514e" stroke-width="1" stroke-opacity="0.25"/>
<text x="168.0" y="762.0" text-anchor="middle" font-size="11" fill="#52514e">1 ns</text>
<line x1="261.2" y1="68.0" x2="261.2" y2="746.0" stroke="#52514e" stroke-width="1" stroke-opacity="0.25"/>
<text x="261.2" y="762.0" text-anchor="middle" font-size="11" fill="#52514e">10 ns</text>
<line x1="354.3" y1="68.0" x2="354.3" y2="746.0" stroke="#52514e" stroke-width="1" stroke-opacity="0.25"/>
<text x="354.3" y="762.0" text-anchor="middle" font-size="11" fill="#52514e">100 ns</text>
<line x1="447.5" y1="68.0" x2="447.5" y2="746.0" stroke="#52514e" stroke-width="1" stroke-opacity="0.25"/>
<text x="447.5" y="762.0" text-anchor="middle" font-size="11" fill="#52514e">1 µs</text>
<line x1="540.6" y1="68.0" x2="540.6" y2="746.0" stroke="#52514e" stroke-width="1" stroke-opacity="0.25"/>
<text x="540.6" y="762.0" text-anchor="middle" font-size="11" fill="#52514e">10 µs</text>
<line x1="633.8" y1="68.0" x2="633.8" y2="746.0" stroke="#52514e" stroke-width="1" stroke-opacity="0.25"/>
<text x="633.8" y="762.0" text-anchor="middle" font-size="11" fill="#52514e">100 µs</text>
<line x1="168.0" y1="746.0" x2="726.0" y2="746.0" stroke="#52514e" stroke-width="1" stroke-opacity="0.4"/>
<text x="152.0" y="90.0" text-anchor="end" font-size="12" fill="#0b0b0b">wasmer</text>
<line x1="168.0" y1="86.0" x2="251.6" y2="86.0" stroke="#eda100" stroke-width="2" stroke-opacity="0.45"/>
<circle cx="251.6" cy="86.0" r="5.5" fill="#eda100" stroke="#fcfcfb" stroke-width="2"/>
<text x="806.0" y="90.0" text-anchor="end" font-size="12" font-weight="600" fill="#0b0b0b">7.89 ns</text>
<text x="152.0" y="114.0" text-anchor="end" font-size="12" fill="#0b0b0b">wasmtime</text>
<line x1="168.0" y1="110.0" x2="253.9" y2="110.0" stroke="#2a78d6" stroke-width="2" stroke-opacity="0.45"/>
<circle cx="253.9" cy="110.0" r="5.5" fill="#2a78d6" stroke="#fcfcfb" stroke-width="2"/>
<text x="806.0" y="114.0" text-anchor="end" font-size="12" font-weight="600" fill="#0b0b0b">8.35 ns</text>
<text x="152.0" y="138.0" text-anchor="end" font-size="12" fill="#0b0b0b">dewasm-codon</text>
<line x1="168.0" y1="134.0" x2="256.4" y2="134.0" stroke="#008300" stroke-width="2" stroke-opacity="0.45"/>
<circle cx="256.4" cy="134.0" r="5.5" fill="#008300" stroke="#fcfcfb" stroke-width="2"/>
<text x="806.0" y="138.0" text-anchor="end" font-size="12" font-weight="600" fill="#0b0b0b">8.89 ns</text>
<text x="152.0" y="162.0" text-anchor="end" font-size="12" fill="#0b0b0b">dewasm-tinygo</text>
<line x1="168.0" y1="158.0" x2="259.0" y2="158.0" stroke="#008300" stroke-width="2" stroke-opacity="0.45"/>
<circle cx="259.0" cy="158.0" r="5.5" fill="#008300" stroke="#fcfcfb" stroke-width="2"/>
<text x="806.0" y="162.0" text-anchor="end" font-size="12" font-weight="600" fill="#0b0b0b">9.47 ns</text>
<text x="152.0" y="186.0" text-anchor="end" font-size="12" fill="#0b0b0b">dewasm-go</text>
<line x1="168.0" y1="182.0" x2="264.6" y2="182.0" stroke="#008300" stroke-width="2" stroke-opacity="0.45"/>
<circle cx="264.6" cy="182.0" r="5.5" fill="#008300" stroke="#fcfcfb" stroke-width="2"/>
<text x="806.0" y="186.0" text-anchor="end" font-size="12" font-weight="600" fill="#0b0b0b">10.9 ns</text>
<text x="152.0" y="210.0" text-anchor="end" font-size="12" fill="#0b0b0b">wasm3</text>
<line x1="168.0" y1="206.0" x2="284.1" y2="206.0" stroke="#eda100" stroke-width="2" stroke-opacity="0.45"/>
<circle cx="284.1" cy="206.0" r="5.5" fill="#eda100" stroke="#fcfcfb" stroke-width="2"/>
<text x="806.0" y="210.0" text-anchor="end" font-size="12" font-weight="600" fill="#0b0b0b">17.6 ns</text>
<text x="152.0" y="234.0" text-anchor="end" font-size="12" fill="#0b0b0b">dewasm-java</text>
<line x1="168.0" y1="230.0" x2="287.4" y2="230.0" stroke="#008300" stroke-width="2" stroke-opacity="0.45"/>
<circle cx="287.4" cy="230.0" r="5.5" fill="#008300" stroke="#fcfcfb" stroke-width="2"/>
<text x="806.0" y="234.0" text-anchor="end" font-size="12" font-weight="600" fill="#0b0b0b">19.1 ns</text>
<text x="152.0" y="258.0" text-anchor="end" font-size="12" fill="#0b0b0b">wazero</text>
<line x1="168.0" y1="254.0" x2="332.9" y2="254.0" stroke="#eda100" stroke-width="2" stroke-opacity="0.45"/>
<circle cx="332.9" cy="254.0" r="5.5" fill="#eda100" stroke="#fcfcfb" stroke-width="2"/>
<text x="806.0" y="258.0" text-anchor="end" font-size="12" font-weight="600" fill="#0b0b0b">58.8 ns</text>
<text x="152.0" y="282.0" text-anchor="end" font-size="12" fill="#0b0b0b">wasmedge</text>
<line x1="168.0" y1="278.0" x2="388.7" y2="278.0" stroke="#eda100" stroke-width="2" stroke-opacity="0.45"/>
<circle cx="388.7" cy="278.0" r="5.5" fill="#eda100" stroke="#fcfcfb" stroke-width="2"/>
<text x="806.0" y="282.0" text-anchor="end" font-size="12" font-weight="600" fill="#0b0b0b">234 ns</text>
<text x="152.0" y="306.0" text-anchor="end" font-size="12" fill="#0b0b0b">dewasm-pypy</text>
<line x1="168.0" y1="302.0" x2="393.0" y2="302.0" stroke="#008300" stroke-width="2" stroke-opacity="0.45"/>
<circle cx="393.0" cy="302.0" r="5.5" fill="#008300" stroke="#fcfcfb" stroke-width="2"/>
<text x="806.0" y="306.0" text-anchor="end" font-size="12" font-weight="600" fill="#0b0b0b">260 ns</text>
<text x="152.0" y="330.0" text-anchor="end" font-size="12" fill="#0b0b0b">dewasm-monoruby</text>
<line x1="168.0" y1="326.0" x2="437.3" y2="326.0" stroke="#008300" stroke-width="2" stroke-opacity="0.45"/>
<circle cx="437.3" cy="326.0" r="5.5" fill="#008300" stroke="#fcfcfb" stroke-width="2"/>
<text x="806.0" y="330.0" text-anchor="end" font-size="12" font-weight="600" fill="#0b0b0b">778 ns</text>
<text x="152.0" y="354.0" text-anchor="end" font-size="12" fill="#0b0b0b">dewasm-ruby-yjit</text>
<line x1="168.0" y1="350.0" x2="445.9" y2="350.0" stroke="#008300" stroke-width="2" stroke-opacity="0.45"/>
<circle cx="445.9" cy="350.0" r="5.5" fill="#008300" stroke="#fcfcfb" stroke-width="2"/>
<text x="806.0" y="354.0" text-anchor="end" font-size="12" font-weight="600" fill="#0b0b0b">961 ns</text>
<text x="152.0" y="378.0" text-anchor="end" font-size="12" fill="#0b0b0b">dewasm-ruby-zjit</text>
<line x1="168.0" y1="374.0" x2="456.8" y2="374.0" stroke="#008300" stroke-width="2" stroke-opacity="0.45"/>
<circle cx="456.8" cy="374.0" r="5.5" fill="#008300" stroke="#fcfcfb" stroke-width="2"/>
<text x="806.0" y="378.0" text-anchor="end" font-size="12" font-weight="600" fill="#0b0b0b">1.26 µs</text>
<text x="152.0" y="402.0" text-anchor="end" font-size="12" fill="#0b0b0b">dewasm-ruby</text>
<line x1="168.0" y1="398.0" x2="465.1" y2="398.0" stroke="#008300" stroke-width="2" stroke-opacity="0.45"/>
<circle cx="465.1" cy="398.0" r="5.5" fill="#008300" stroke="#fcfcfb" stroke-width="2"/>
<text x="806.0" y="402.0" text-anchor="end" font-size="12" font-weight="600" fill="#0b0b0b">1.55 µs</text>
<text x="152.0" y="426.0" text-anchor="end" font-size="12" fill="#0b0b0b">dewasm-python-jit</text>
<line x1="168.0" y1="422.0" x2="467.0" y2="422.0" stroke="#008300" stroke-width="2" stroke-opacity="0.45"/>
<circle cx="467.0" cy="422.0" r="5.5" fill="#008300" stroke="#fcfcfb" stroke-width="2"/>
<text x="806.0" y="426.0" text-anchor="end" font-size="12" font-weight="600" fill="#0b0b0b">1.62 µs</text>
<text x="152.0" y="450.0" text-anchor="end" font-size="12" fill="#0b0b0b">dewasm-python</text>
<line x1="168.0" y1="446.0" x2="468.7" y2="446.0" stroke="#008300" stroke-width="2" stroke-opacity="0.45"/>
<circle cx="468.7" cy="446.0" r="5.5" fill="#008300" stroke="#fcfcfb" stroke-width="2"/>
<text x="806.0" y="450.0" text-anchor="end" font-size="12" font-weight="600" fill="#0b0b0b">1.69 µs</text>
<text x="152.0" y="474.0" text-anchor="end" font-size="12" fill="#0b0b0b">dewasm-perl</text>
<line x1="168.0" y1="470.0" x2="476.0" y2="470.0" stroke="#008300" stroke-width="2" stroke-opacity="0.45"/>
<circle cx="476.0" cy="470.0" r="5.5" fill="#008300" stroke="#fcfcfb" stroke-width="2"/>
<text x="806.0" y="474.0" text-anchor="end" font-size="12" font-weight="600" fill="#0b0b0b">2.02 µs</text>
<text x="152.0" y="498.0" text-anchor="end" font-size="12" fill="#0b0b0b">dewasm-jruby</text>
<line x1="168.0" y1="494.0" x2="520.1" y2="494.0" stroke="#008300" stroke-width="2" stroke-opacity="0.45"/>
<circle cx="520.1" cy="494.0" r="5.5" fill="#008300" stroke="#fcfcfb" stroke-width="2"/>
<text x="806.0" y="498.0" text-anchor="end" font-size="12" font-weight="600" fill="#0b0b0b">6.02 µs</text>
<text x="152.0" y="522.0" text-anchor="end" font-size="12" fill="#0b0b0b">dewasm-graalpy</text>
<line x1="168.0" y1="518.0" x2="530.2" y2="518.0" stroke="#008300" stroke-width="2" stroke-opacity="0.45"/>
<circle cx="530.2" cy="518.0" r="5.5" fill="#008300" stroke="#fcfcfb" stroke-width="2"/>
<text x="806.0" y="522.0" text-anchor="end" font-size="12" font-weight="600" fill="#0b0b0b">7.73 µs</text>
<text x="152.0" y="546.0" text-anchor="end" font-size="12" fill="#0b0b0b">wasm3-ruby-yjit</text>
<line x1="168.0" y1="542.0" x2="535.7" y2="542.0" stroke="#e87ba4" stroke-width="2" stroke-opacity="0.45"/>
<circle cx="535.7" cy="542.0" r="5.5" fill="#e87ba4" stroke="#fcfcfb" stroke-width="2"/>
<text x="806.0" y="546.0" text-anchor="end" font-size="12" font-weight="600" fill="#0b0b0b">8.86 µs</text>
<text x="152.0" y="570.0" text-anchor="end" font-size="12" fill="#0b0b0b">wardite-yjit</text>
<line x1="168.0" y1="566.0" x2="561.7" y2="566.0" stroke="#e87ba4" stroke-width="2" stroke-opacity="0.45"/>
<circle cx="561.7" cy="566.0" r="5.5" fill="#e87ba4" stroke="#fcfcfb" stroke-width="2"/>
<text x="806.0" y="570.0" text-anchor="end" font-size="12" font-weight="600" fill="#0b0b0b">16.8 µs</text>
<text x="152.0" y="594.0" text-anchor="end" font-size="12" fill="#0b0b0b">wasm3-ruby</text>
<line x1="168.0" y1="590.0" x2="571.1" y2="590.0" stroke="#e87ba4" stroke-width="2" stroke-opacity="0.45"/>
<circle cx="571.1" cy="590.0" r="5.5" fill="#e87ba4" stroke="#fcfcfb" stroke-width="2"/>
<text x="806.0" y="594.0" text-anchor="end" font-size="12" font-weight="600" fill="#0b0b0b">21.2 µs</text>
<text x="152.0" y="618.0" text-anchor="end" font-size="12" fill="#0b0b0b">wardite</text>
<line x1="168.0" y1="614.0" x2="580.4" y2="614.0" stroke="#e87ba4" stroke-width="2" stroke-opacity="0.45"/>
<circle cx="580.4" cy="614.0" r="5.5" fill="#e87ba4" stroke="#fcfcfb" stroke-width="2"/>
<text x="806.0" y="618.0" text-anchor="end" font-size="12" font-weight="600" fill="#0b0b0b">26.7 µs</text>
<text x="152.0" y="642.0" text-anchor="end" font-size="12" fill="#0b0b0b">wasm3-python</text>
<line x1="168.0" y1="638.0" x2="598.5" y2="638.0" stroke="#e87ba4" stroke-width="2" stroke-opacity="0.45"/>
<circle cx="598.5" cy="638.0" r="5.5" fill="#e87ba4" stroke="#fcfcfb" stroke-width="2"/>
<text x="806.0" y="642.0" text-anchor="end" font-size="12" font-weight="600" fill="#0b0b0b">41.8 µs</text>
<text x="152.0" y="666.0" text-anchor="end" font-size="12" fill="#0b0b0b">wasm3-pypy</text>
<line x1="168.0" y1="662.0" x2="623.3" y2="662.0" stroke="#e87ba4" stroke-width="2" stroke-opacity="0.45"/>
<circle cx="623.3" cy="662.0" r="5.5" fill="#e87ba4" stroke="#fcfcfb" stroke-width="2"/>
<text x="806.0" y="666.0" text-anchor="end" font-size="12" font-weight="600" fill="#0b0b0b">77.1 µs</text>
<text x="152.0" y="690.0" text-anchor="end" font-size="12" fill="#0b0b0b">pywasm-cpython</text>
<line x1="168.0" y1="686.0" x2="636.7" y2="686.0" stroke="#e87ba4" stroke-width="2" stroke-opacity="0.45"/>
<circle cx="636.7" cy="686.0" r="5.5" fill="#e87ba4" stroke="#fcfcfb" stroke-width="2"/>
<text x="806.0" y="690.0" text-anchor="end" font-size="12" font-weight="600" fill="#0b0b0b">108 µs</text>
<text x="152.0" y="714.0" text-anchor="end" font-size="12" fill="#0b0b0b">dewasm-bash</text>
<line x1="168.0" y1="710.0" x2="701.4" y2="710.0" stroke="#008300" stroke-width="2" stroke-opacity="0.45"/>
<circle cx="701.4" cy="710.0" r="5.5" fill="#008300" stroke="#fcfcfb" stroke-width="2"/>
<text x="806.0" y="714.0" text-anchor="end" font-size="12" font-weight="600" fill="#0b0b0b">532 µs</text>
<text x="152.0" y="738.0" text-anchor="end" font-size="12" fill="#0b0b0b">pywasm-pypy</text>
<line x1="168.0" y1="734.0" x2="718.0" y2="734.0" stroke="#e87ba4" stroke-width="2" stroke-opacity="0.45"/>
<circle cx="718.0" cy="734.0" r="5.5" fill="#e87ba4" stroke="#fcfcfb" stroke-width="2"/>
<text x="806.0" y="738.0" text-anchor="end" font-size="12" font-weight="600" fill="#0b0b0b">801 µs</text>
<text x="14.0" y="24" font-size="15" font-weight="600" fill="#0b0b0b">wat/conv: seconds per iteration, median of the timed runs (log scale)</text>
<circle cx="19.5" cy="48.0" r="5.5" fill="#2a78d6" stroke="#fcfcfb" stroke-width="2"/>
<text x="31.0" y="52.0" font-size="12" fill="#52514e">wasmtime (baseline)</text>
<circle cx="179.9" cy="48.0" r="5.5" fill="#008300" stroke="#fcfcfb" stroke-width="2"/>
<text x="191.4" y="52.0" font-size="12" fill="#52514e">dewasm backends</text>
<circle cx="313.9" cy="48.0" r="5.5" fill="#eda100" stroke="#fcfcfb" stroke-width="2"/>
<text x="325.4" y="52.0" font-size="12" fill="#52514e">native runtimes</text>
<circle cx="447.9" cy="48.0" r="5.5" fill="#e87ba4" stroke="#fcfcfb" stroke-width="2"/>
<text x="459.4" y="52.0" font-size="12" fill="#52514e">wasm interpreters in a host language</text>
</svg>
