<svg xmlns="http://www.w3.org/2000/svg" width="820" height="800" viewBox="0 0 820 800" font-family="system-ui, -apple-system, Segoe UI, sans-serif" role="img" aria-label="wat/i32_alu: seconds per iteration for 29 runners on a log scale, fastest first. dewasm-codon is fastest at 2.27 ns, then wasmer at 2.29 ns; pywasm-cpython is slowest at 53.6 µs, a span of 23600x. The table below carries every number.">
<title>wat/i32_alu: seconds per iteration for 29 runners on a log scale, fastest first. dewasm-codon is fastest at 2.27 ns, then wasmer at 2.29 ns; pywasm-cpython is slowest at 53.6 µs, a span of 23600x. The table below carries every number.</title>
<rect width="820" height="800" fill="#1a1a19"/>
<line x1="168.0" y1="68.0" x2="168.0" y2="770.0" stroke="#c3c2b7" stroke-width="1" stroke-opacity="0.25"/>
<text x="168.0" y="786.0" text-anchor="middle" font-size="11" fill="#c3c2b7">1 ns</text>
<line x1="284.3" y1="68.0" x2="284.3" y2="770.0" stroke="#c3c2b7" stroke-width="1" stroke-opacity="0.25"/>
<text x="284.3" y="786.0" text-anchor="middle" font-size="11" fill="#c3c2b7">10 ns</text>
<line x1="400.6" y1="68.0" x2="400.6" y2="770.0" stroke="#c3c2b7" stroke-width="1" stroke-opacity="0.25"/>
<text x="400.6" y="786.0" text-anchor="middle" font-size="11" fill="#c3c2b7">100 ns</text>
<line x1="516.9" y1="68.0" x2="516.9" y2="770.0" stroke="#c3c2b7" stroke-width="1" stroke-opacity="0.25"/>
<text x="516.9" y="786.0" text-anchor="middle" font-size="11" fill="#c3c2b7">1 µs</text>
<line x1="633.2" y1="68.0" x2="633.2" y2="770.0" stroke="#c3c2b7" stroke-width="1" stroke-opacity="0.25"/>
<text x="633.2" y="786.0" text-anchor="middle" font-size="11" fill="#c3c2b7">10 µs</text>
<line x1="168.0" y1="770.0" x2="726.0" y2="770.0" stroke="#c3c2b7" stroke-width="1" stroke-opacity="0.4"/>
<text x="152.0" y="90.0" text-anchor="end" font-size="12" fill="#ffffff">dewasm-codon</text>
<line x1="168.0" y1="86.0" x2="209.4" y2="86.0" stroke="#008300" stroke-width="2" stroke-opacity="0.45"/>
<circle cx="209.4" cy="86.0" r="5.5" fill="#008300" stroke="#1a1a19" stroke-width="2"/>
<text x="806.0" y="90.0" text-anchor="end" font-size="12" font-weight="600" fill="#ffffff">2.27 ns</text>
<text x="152.0" y="114.0" text-anchor="end" font-size="12" fill="#ffffff">wasmer</text>
<line x1="168.0" y1="110.0" x2="209.8" y2="110.0" stroke="#c98500" stroke-width="2" stroke-opacity="0.45"/>
<circle cx="209.8" cy="110.0" r="5.5" fill="#c98500" stroke="#1a1a19" stroke-width="2"/>
<text x="806.0" y="114.0" text-anchor="end" font-size="12" font-weight="600" fill="#ffffff">2.29 ns</text>
<text x="152.0" y="138.0" text-anchor="end" font-size="12" fill="#ffffff">wasmtime</text>
<line x1="168.0" y1="134.0" x2="210.0" y2="134.0" stroke="#3987e5" stroke-width="2" stroke-opacity="0.45"/>
<circle cx="210.0" cy="134.0" r="5.5" fill="#3987e5" stroke="#1a1a19" stroke-width="2"/>
<text x="806.0" y="138.0" text-anchor="end" font-size="12" font-weight="600" fill="#ffffff">2.30 ns</text>
<text x="152.0" y="162.0" text-anchor="end" font-size="12" fill="#ffffff">dewasm-tinygo</text>
<line x1="168.0" y1="158.0" x2="210.0" y2="158.0" stroke="#008300" stroke-width="2" stroke-opacity="0.45"/>
<circle cx="210.0" cy="158.0" r="5.5" fill="#008300" stroke="#1a1a19" stroke-width="2"/>
<text x="806.0" y="162.0" text-anchor="end" font-size="12" font-weight="600" fill="#ffffff">2.30 ns</text>
<text x="152.0" y="186.0" text-anchor="end" font-size="12" fill="#ffffff">dewasm-java</text>
<line x1="168.0" y1="182.0" x2="210.2" y2="182.0" stroke="#008300" stroke-width="2" stroke-opacity="0.45"/>
<circle cx="210.2" cy="182.0" r="5.5" fill="#008300" stroke="#1a1a19" stroke-width="2"/>
<text x="806.0" y="186.0" text-anchor="end" font-size="12" font-weight="600" fill="#ffffff">2.31 ns</text>
<text x="152.0" y="210.0" text-anchor="end" font-size="12" fill="#ffffff">wazero</text>
<line x1="168.0" y1="206.0" x2="216.6" y2="206.0" stroke="#c98500" stroke-width="2" stroke-opacity="0.45"/>
<circle cx="216.6" cy="206.0" r="5.5" fill="#c98500" stroke="#1a1a19" stroke-width="2"/>
<text x="806.0" y="210.0" text-anchor="end" font-size="12" font-weight="600" fill="#ffffff">2.62 ns</text>
<text x="152.0" y="234.0" text-anchor="end" font-size="12" fill="#ffffff">dewasm-go</text>
<line x1="168.0" y1="230.0" x2="222.9" y2="230.0" stroke="#008300" stroke-width="2" stroke-opacity="0.45"/>
<circle cx="222.9" cy="230.0" r="5.5" fill="#008300" stroke="#1a1a19" stroke-width="2"/>
<text x="806.0" y="234.0" text-anchor="end" font-size="12" font-weight="600" fill="#ffffff">2.97 ns</text>
<text x="152.0" y="258.0" text-anchor="end" font-size="12" fill="#ffffff">wasm3</text>
<line x1="168.0" y1="254.0" x2="274.8" y2="254.0" stroke="#c98500" stroke-width="2" stroke-opacity="0.45"/>
<circle cx="274.8" cy="254.0" r="5.5" fill="#c98500" stroke="#1a1a19" stroke-width="2"/>
<text x="806.0" y="258.0" text-anchor="end" font-size="12" font-weight="600" fill="#ffffff">8.29 ns</text>
<text x="152.0" y="282.0" text-anchor="end" font-size="12" fill="#ffffff">dewasm-pypy</text>
<line x1="168.0" y1="278.0" x2="281.5" y2="278.0" stroke="#008300" stroke-width="2" stroke-opacity="0.45"/>
<circle cx="281.5" cy="278.0" r="5.5" fill="#008300" stroke="#1a1a19" stroke-width="2"/>
<text x="806.0" y="282.0" text-anchor="end" font-size="12" font-weight="600" fill="#ffffff">9.45 ns</text>
<text x="152.0" y="306.0" text-anchor="end" font-size="12" fill="#ffffff">dewasm-monoruby</text>
<line x1="168.0" y1="302.0" x2="310.2" y2="302.0" stroke="#008300" stroke-width="2" stroke-opacity="0.45"/>
<circle cx="310.2" cy="302.0" r="5.5" fill="#008300" stroke="#1a1a19" stroke-width="2"/>
<text x="806.0" y="306.0" text-anchor="end" font-size="12" font-weight="600" fill="#ffffff">16.7 ns</text>
<text x="152.0" y="330.0" text-anchor="end" font-size="12" fill="#ffffff">dewasm-spinel</text>
<line x1="168.0" y1="326.0" x2="370.3" y2="326.0" stroke="#008300" stroke-width="2" stroke-opacity="0.45"/>
<circle cx="370.3" cy="326.0" r="5.5" fill="#008300" stroke="#1a1a19" stroke-width="2"/>
<text x="806.0" y="330.0" text-anchor="end" font-size="12" font-weight="600" fill="#ffffff">54.8 ns</text>
<text x="152.0" y="354.0" text-anchor="end" font-size="12" fill="#ffffff">wasmedge</text>
<line x1="168.0" y1="350.0" x2="421.3" y2="350.0" stroke="#c98500" stroke-width="2" stroke-opacity="0.45"/>
<circle cx="421.3" cy="350.0" r="5.5" fill="#c98500" stroke="#1a1a19" stroke-width="2"/>
<text x="806.0" y="354.0" text-anchor="end" font-size="12" font-weight="600" fill="#ffffff">151 ns</text>
<text x="152.0" y="378.0" text-anchor="end" font-size="12" fill="#ffffff">dewasm-ruby-yjit</text>
<line x1="168.0" y1="374.0" x2="421.5" y2="374.0" stroke="#008300" stroke-width="2" stroke-opacity="0.45"/>
<circle cx="421.5" cy="374.0" r="5.5" fill="#008300" stroke="#1a1a19" stroke-width="2"/>
<text x="806.0" y="378.0" text-anchor="end" font-size="12" font-weight="600" fill="#ffffff">151 ns</text>
<text x="152.0" y="402.0" text-anchor="end" font-size="12" fill="#ffffff">dewasm-ruby-zjit</text>
<line x1="168.0" y1="398.0" x2="425.1" y2="398.0" stroke="#008300" stroke-width="2" stroke-opacity="0.45"/>
<circle cx="425.1" cy="398.0" r="5.5" fill="#008300" stroke="#1a1a19" stroke-width="2"/>
<text x="806.0" y="402.0" text-anchor="end" font-size="12" font-weight="600" fill="#ffffff">162 ns</text>
<text x="152.0" y="426.0" text-anchor="end" font-size="12" fill="#ffffff">dewasm-ruby</text>
<line x1="168.0" y1="422.0" x2="436.5" y2="422.0" stroke="#008300" stroke-width="2" stroke-opacity="0.45"/>
<circle cx="436.5" cy="422.0" r="5.5" fill="#008300" stroke="#1a1a19" stroke-width="2"/>
<text x="806.0" y="426.0" text-anchor="end" font-size="12" font-weight="600" fill="#ffffff">204 ns</text>
<text x="152.0" y="450.0" text-anchor="end" font-size="12" fill="#ffffff">dewasm-python</text>
<line x1="168.0" y1="446.0" x2="487.8" y2="446.0" stroke="#008300" stroke-width="2" stroke-opacity="0.45"/>
<circle cx="487.8" cy="446.0" r="5.5" fill="#008300" stroke="#1a1a19" stroke-width="2"/>
<text x="806.0" y="450.0" text-anchor="end" font-size="12" font-weight="600" fill="#ffffff">562 ns</text>
<text x="152.0" y="474.0" text-anchor="end" font-size="12" fill="#ffffff">dewasm-python-jit</text>
<line x1="168.0" y1="470.0" x2="493.3" y2="470.0" stroke="#008300" stroke-width="2" stroke-opacity="0.45"/>
<circle cx="493.3" cy="470.0" r="5.5" fill="#008300" stroke="#1a1a19" stroke-width="2"/>
<text x="806.0" y="474.0" text-anchor="end" font-size="12" font-weight="600" fill="#ffffff">627 ns</text>
<text x="152.0" y="498.0" text-anchor="end" font-size="12" fill="#ffffff">dewasm-perl</text>
<line x1="168.0" y1="494.0" x2="498.0" y2="494.0" stroke="#008300" stroke-width="2" stroke-opacity="0.45"/>
<circle cx="498.0" cy="494.0" r="5.5" fill="#008300" stroke="#1a1a19" stroke-width="2"/>
<text x="806.0" y="498.0" text-anchor="end" font-size="12" font-weight="600" fill="#ffffff">688 ns</text>
<text x="152.0" y="522.0" text-anchor="end" font-size="12" fill="#ffffff">dewasm-graalpy</text>
<line x1="168.0" y1="518.0" x2="518.3" y2="518.0" stroke="#008300" stroke-width="2" stroke-opacity="0.45"/>
<circle cx="518.3" cy="518.0" r="5.5" fill="#008300" stroke="#1a1a19" stroke-width="2"/>
<text x="806.0" y="522.0" text-anchor="end" font-size="12" font-weight="600" fill="#ffffff">1.03 µs</text>
<text x="152.0" y="546.0" text-anchor="end" font-size="12" fill="#ffffff">dewasm-jruby</text>
<line x1="168.0" y1="542.0" x2="542.0" y2="542.0" stroke="#008300" stroke-width="2" stroke-opacity="0.45"/>
<circle cx="542.0" cy="542.0" r="5.5" fill="#008300" stroke="#1a1a19" stroke-width="2"/>
<text x="806.0" y="546.0" text-anchor="end" font-size="12" font-weight="600" fill="#ffffff">1.64 µs</text>
<text x="152.0" y="570.0" text-anchor="end" font-size="12" fill="#ffffff">wasm3-ruby-yjit</text>
<line x1="168.0" y1="566.0" x2="586.2" y2="566.0" stroke="#d55181" stroke-width="2" stroke-opacity="0.45"/>
<circle cx="586.2" cy="566.0" r="5.5" fill="#d55181" stroke="#1a1a19" stroke-width="2"/>
<text x="806.0" y="570.0" text-anchor="end" font-size="12" font-weight="600" fill="#ffffff">3.94 µs</text>
<text x="152.0" y="594.0" text-anchor="end" font-size="12" fill="#ffffff">wasm3-pypy</text>
<line x1="168.0" y1="590.0" x2="612.3" y2="590.0" stroke="#d55181" stroke-width="2" stroke-opacity="0.45"/>
<circle cx="612.3" cy="590.0" r="5.5" fill="#d55181" stroke="#1a1a19" stroke-width="2"/>
<text x="806.0" y="594.0" text-anchor="end" font-size="12" font-weight="600" fill="#ffffff">6.61 µs</text>
<text x="152.0" y="618.0" text-anchor="end" font-size="12" fill="#ffffff">wardite-yjit</text>
<line x1="168.0" y1="614.0" x2="619.2" y2="614.0" stroke="#d55181" stroke-width="2" stroke-opacity="0.45"/>
<circle cx="619.2" cy="614.0" r="5.5" fill="#d55181" stroke="#1a1a19" stroke-width="2"/>
<text x="806.0" y="618.0" text-anchor="end" font-size="12" font-weight="600" fill="#ffffff">7.58 µs</text>
<text x="152.0" y="642.0" text-anchor="end" font-size="12" fill="#ffffff">pywasm-pypy</text>
<line x1="168.0" y1="638.0" x2="640.6" y2="638.0" stroke="#d55181" stroke-width="2" stroke-opacity="0.45"/>
<circle cx="640.6" cy="638.0" r="5.5" fill="#d55181" stroke="#1a1a19" stroke-width="2"/>
<text x="806.0" y="642.0" text-anchor="end" font-size="12" font-weight="600" fill="#ffffff">11.6 µs</text>
<text x="152.0" y="666.0" text-anchor="end" font-size="12" fill="#ffffff">wasm3-ruby</text>
<line x1="168.0" y1="662.0" x2="642.7" y2="662.0" stroke="#d55181" stroke-width="2" stroke-opacity="0.45"/>
<circle cx="642.7" cy="662.0" r="5.5" fill="#d55181" stroke="#1a1a19" stroke-width="2"/>
<text x="806.0" y="666.0" text-anchor="end" font-size="12" font-weight="600" fill="#ffffff">12.1 µs</text>
<text x="152.0" y="690.0" text-anchor="end" font-size="12" fill="#ffffff">wardite</text>
<line x1="168.0" y1="686.0" x2="654.6" y2="686.0" stroke="#d55181" stroke-width="2" stroke-opacity="0.45"/>
<circle cx="654.6" cy="686.0" r="5.5" fill="#d55181" stroke="#1a1a19" stroke-width="2"/>
<text x="806.0" y="690.0" text-anchor="end" font-size="12" font-weight="600" fill="#ffffff">15.3 µs</text>
<text x="152.0" y="714.0" text-anchor="end" font-size="12" fill="#ffffff">dewasm-bash</text>
<line x1="168.0" y1="710.0" x2="675.5" y2="710.0" stroke="#008300" stroke-width="2" stroke-opacity="0.45"/>
<circle cx="675.5" cy="710.0" r="5.5" fill="#008300" stroke="#1a1a19" stroke-width="2"/>
<text x="806.0" y="714.0" text-anchor="end" font-size="12" font-weight="600" fill="#ffffff">23.1 µs</text>
<text x="152.0" y="738.0" text-anchor="end" font-size="12" fill="#ffffff">wasm3-python</text>
<line x1="168.0" y1="734.0" x2="683.7" y2="734.0" stroke="#d55181" stroke-width="2" stroke-opacity="0.45"/>
<circle cx="683.7" cy="734.0" r="5.5" fill="#d55181" stroke="#1a1a19" stroke-width="2"/>
<text x="806.0" y="738.0" text-anchor="end" font-size="12" font-weight="600" fill="#ffffff">27.2 µs</text>
<text x="152.0" y="762.0" text-anchor="end" font-size="12" fill="#ffffff">pywasm-cpython</text>
<line x1="168.0" y1="758.0" x2="718.0" y2="758.0" stroke="#d55181" stroke-width="2" stroke-opacity="0.45"/>
<circle cx="718.0" cy="758.0" r="5.5" fill="#d55181" stroke="#1a1a19" stroke-width="2"/>
<text x="806.0" y="762.0" text-anchor="end" font-size="12" font-weight="600" fill="#ffffff">53.6 µs</text>
<text x="14.0" y="24" font-size="15" font-weight="600" fill="#ffffff">wat/i32_alu: seconds per iteration, median of the timed runs (log scale)</text>
<circle cx="19.5" cy="48.0" r="5.5" fill="#3987e5" stroke="#1a1a19" stroke-width="2"/>
<text x="31.0" y="52.0" font-size="12" fill="#c3c2b7">wasmtime (baseline)</text>
<circle cx="179.9" cy="48.0" r="5.5" fill="#008300" stroke="#1a1a19" stroke-width="2"/>
<text x="191.4" y="52.0" font-size="12" fill="#c3c2b7">dewasm backends</text>
<circle cx="313.9" cy="48.0" r="5.5" fill="#c98500" stroke="#1a1a19" stroke-width="2"/>
<text x="325.4" y="52.0" font-size="12" fill="#c3c2b7">native runtimes</text>
<circle cx="447.9" cy="48.0" r="5.5" fill="#d55181" stroke="#1a1a19" stroke-width="2"/>
<text x="459.4" y="52.0" font-size="12" fill="#c3c2b7">wasm interpreters in a host language</text>
</svg>
