<svg xmlns="http://www.w3.org/2000/svg" width="820" height="632" viewBox="0 0 820 632" font-family="system-ui, -apple-system, Segoe UI, sans-serif" role="img" aria-label="wat/i32_alu: seconds per iteration for 22 runners on a log scale, fastest first. wasmtime is fastest at 2.28 ns, then wasmer at 2.29 ns; pywasm-cpython is slowest at 52.7 µs, a span of 23100x. The table below carries every number.">
<title>wat/i32_alu: seconds per iteration for 22 runners on a log scale, fastest first. wasmtime is fastest at 2.28 ns, then wasmer at 2.29 ns; pywasm-cpython is slowest at 52.7 µs, a span of 23100x. The table below carries every number.</title>
<rect width="820" height="632" fill="#1a1a19"/>
<line x1="168.0" y1="68.0" x2="168.0" y2="602.0" stroke="#c3c2b7" stroke-width="1" stroke-opacity="0.25"/>
<text x="168.0" y="618.0" text-anchor="middle" font-size="11" fill="#c3c2b7">1 ns</text>
<line x1="284.5" y1="68.0" x2="284.5" y2="602.0" stroke="#c3c2b7" stroke-width="1" stroke-opacity="0.25"/>
<text x="284.5" y="618.0" text-anchor="middle" font-size="11" fill="#c3c2b7">10 ns</text>
<line x1="401.0" y1="68.0" x2="401.0" y2="602.0" stroke="#c3c2b7" stroke-width="1" stroke-opacity="0.25"/>
<text x="401.0" y="618.0" text-anchor="middle" font-size="11" fill="#c3c2b7">100 ns</text>
<line x1="517.5" y1="68.0" x2="517.5" y2="602.0" stroke="#c3c2b7" stroke-width="1" stroke-opacity="0.25"/>
<text x="517.5" y="618.0" text-anchor="middle" font-size="11" fill="#c3c2b7">1 µs</text>
<line x1="633.9" y1="68.0" x2="633.9" y2="602.0" stroke="#c3c2b7" stroke-width="1" stroke-opacity="0.25"/>
<text x="633.9" y="618.0" text-anchor="middle" font-size="11" fill="#c3c2b7">10 µs</text>
<line x1="168.0" y1="602.0" x2="726.0" y2="602.0" stroke="#c3c2b7" stroke-width="1" stroke-opacity="0.4"/>
<text x="152.0" y="90.0" text-anchor="end" font-size="12" fill="#ffffff">wasmtime</text>
<line x1="168.0" y1="86.0" x2="209.8" y2="86.0" stroke="#3987e5" stroke-width="2" stroke-opacity="0.45"/>
<circle cx="209.8" cy="86.0" r="5.5" fill="#3987e5" stroke="#1a1a19" stroke-width="2"/>
<text x="806.0" y="90.0" text-anchor="end" font-size="12" font-weight="600" fill="#ffffff">2.28 ns</text>
<text x="152.0" y="114.0" text-anchor="end" font-size="12" fill="#ffffff">wasmer</text>
<line x1="168.0" y1="110.0" x2="209.8" y2="110.0" stroke="#c98500" stroke-width="2" stroke-opacity="0.45"/>
<circle cx="209.8" cy="110.0" r="5.5" fill="#c98500" stroke="#1a1a19" stroke-width="2"/>
<text x="806.0" y="114.0" text-anchor="end" font-size="12" font-weight="600" fill="#ffffff">2.29 ns</text>
<text x="152.0" y="138.0" text-anchor="end" font-size="12" fill="#ffffff">dewasm-java</text>
<line x1="168.0" y1="134.0" x2="209.9" y2="134.0" stroke="#008300" stroke-width="2" stroke-opacity="0.45"/>
<circle cx="209.9" cy="134.0" r="5.5" fill="#008300" stroke="#1a1a19" stroke-width="2"/>
<text x="806.0" y="138.0" text-anchor="end" font-size="12" font-weight="600" fill="#ffffff">2.29 ns</text>
<text x="152.0" y="162.0" text-anchor="end" font-size="12" fill="#ffffff">wazero</text>
<line x1="168.0" y1="158.0" x2="216.7" y2="158.0" stroke="#c98500" stroke-width="2" stroke-opacity="0.45"/>
<circle cx="216.7" cy="158.0" r="5.5" fill="#c98500" stroke="#1a1a19" stroke-width="2"/>
<text x="806.0" y="162.0" text-anchor="end" font-size="12" font-weight="600" fill="#ffffff">2.62 ns</text>
<text x="152.0" y="186.0" text-anchor="end" font-size="12" fill="#ffffff">dewasm-go</text>
<line x1="168.0" y1="182.0" x2="223.8" y2="182.0" stroke="#008300" stroke-width="2" stroke-opacity="0.45"/>
<circle cx="223.8" cy="182.0" r="5.5" fill="#008300" stroke="#1a1a19" stroke-width="2"/>
<text x="806.0" y="186.0" text-anchor="end" font-size="12" font-weight="600" fill="#ffffff">3.01 ns</text>
<text x="152.0" y="210.0" text-anchor="end" font-size="12" fill="#ffffff">dewasm-pypy</text>
<line x1="168.0" y1="206.0" x2="281.5" y2="206.0" stroke="#008300" stroke-width="2" stroke-opacity="0.45"/>
<circle cx="281.5" cy="206.0" r="5.5" fill="#008300" stroke="#1a1a19" stroke-width="2"/>
<text x="806.0" y="210.0" text-anchor="end" font-size="12" font-weight="600" fill="#ffffff">9.42 ns</text>
<text x="152.0" y="234.0" text-anchor="end" font-size="12" fill="#ffffff">wasm3</text>
<line x1="168.0" y1="230.0" x2="296.8" y2="230.0" stroke="#c98500" stroke-width="2" stroke-opacity="0.45"/>
<circle cx="296.8" cy="230.0" r="5.5" fill="#c98500" stroke="#1a1a19" stroke-width="2"/>
<text x="806.0" y="234.0" text-anchor="end" font-size="12" font-weight="600" fill="#ffffff">12.8 ns</text>
<text x="152.0" y="258.0" text-anchor="end" font-size="12" fill="#ffffff">dewasm-ruby-yjit</text>
<line x1="168.0" y1="254.0" x2="416.9" y2="254.0" stroke="#008300" stroke-width="2" stroke-opacity="0.45"/>
<circle cx="416.9" cy="254.0" r="5.5" fill="#008300" stroke="#1a1a19" stroke-width="2"/>
<text x="806.0" y="258.0" text-anchor="end" font-size="12" font-weight="600" fill="#ffffff">137 ns</text>
<text x="152.0" y="282.0" text-anchor="end" font-size="12" fill="#ffffff">wasmedge</text>
<line x1="168.0" y1="278.0" x2="420.7" y2="278.0" stroke="#c98500" stroke-width="2" stroke-opacity="0.45"/>
<circle cx="420.7" cy="278.0" r="5.5" fill="#c98500" stroke="#1a1a19" stroke-width="2"/>
<text x="806.0" y="282.0" text-anchor="end" font-size="12" font-weight="600" fill="#ffffff">148 ns</text>
<text x="152.0" y="306.0" text-anchor="end" font-size="12" fill="#ffffff">dewasm-ruby-zjit</text>
<line x1="168.0" y1="302.0" x2="421.1" y2="302.0" stroke="#008300" stroke-width="2" stroke-opacity="0.45"/>
<circle cx="421.1" cy="302.0" r="5.5" fill="#008300" stroke="#1a1a19" stroke-width="2"/>
<text x="806.0" y="306.0" text-anchor="end" font-size="12" font-weight="600" fill="#ffffff">149 ns</text>
<text x="152.0" y="330.0" text-anchor="end" font-size="12" fill="#ffffff">dewasm-ruby</text>
<line x1="168.0" y1="326.0" x2="431.2" y2="326.0" stroke="#008300" stroke-width="2" stroke-opacity="0.45"/>
<circle cx="431.2" cy="326.0" r="5.5" fill="#008300" stroke="#1a1a19" stroke-width="2"/>
<text x="806.0" y="330.0" text-anchor="end" font-size="12" font-weight="600" fill="#ffffff">182 ns</text>
<text x="152.0" y="354.0" text-anchor="end" font-size="12" fill="#ffffff">dewasm-python</text>
<line x1="168.0" y1="350.0" x2="487.7" y2="350.0" stroke="#008300" stroke-width="2" stroke-opacity="0.45"/>
<circle cx="487.7" cy="350.0" r="5.5" fill="#008300" stroke="#1a1a19" stroke-width="2"/>
<text x="806.0" y="354.0" text-anchor="end" font-size="12" font-weight="600" fill="#ffffff">555 ns</text>
<text x="152.0" y="378.0" text-anchor="end" font-size="12" fill="#ffffff">dewasm-perl</text>
<line x1="168.0" y1="374.0" x2="498.1" y2="374.0" stroke="#008300" stroke-width="2" stroke-opacity="0.45"/>
<circle cx="498.1" cy="374.0" r="5.5" fill="#008300" stroke="#1a1a19" stroke-width="2"/>
<text x="806.0" y="378.0" text-anchor="end" font-size="12" font-weight="600" fill="#ffffff">682 ns</text>
<text x="152.0" y="402.0" text-anchor="end" font-size="12" fill="#ffffff">wasm3-ruby-yjit</text>
<line x1="168.0" y1="398.0" x2="584.8" y2="398.0" stroke="#d55181" stroke-width="2" stroke-opacity="0.45"/>
<circle cx="584.8" cy="398.0" r="5.5" fill="#d55181" stroke="#1a1a19" stroke-width="2"/>
<text x="806.0" y="402.0" text-anchor="end" font-size="12" font-weight="600" fill="#ffffff">3.78 µs</text>
<text x="152.0" y="426.0" text-anchor="end" font-size="12" fill="#ffffff">wardite-yjit</text>
<line x1="168.0" y1="422.0" x2="614.7" y2="422.0" stroke="#d55181" stroke-width="2" stroke-opacity="0.45"/>
<circle cx="614.7" cy="422.0" r="5.5" fill="#d55181" stroke="#1a1a19" stroke-width="2"/>
<text x="806.0" y="426.0" text-anchor="end" font-size="12" font-weight="600" fill="#ffffff">6.83 µs</text>
<text x="152.0" y="450.0" text-anchor="end" font-size="12" fill="#ffffff">wasm3-pypy</text>
<line x1="168.0" y1="446.0" x2="617.0" y2="446.0" stroke="#d55181" stroke-width="2" stroke-opacity="0.45"/>
<circle cx="617.0" cy="446.0" r="5.5" fill="#d55181" stroke="#1a1a19" stroke-width="2"/>
<text x="806.0" y="450.0" text-anchor="end" font-size="12" font-weight="600" fill="#ffffff">7.15 µs</text>
<text x="152.0" y="474.0" text-anchor="end" font-size="12" fill="#ffffff">wasm3-ruby</text>
<line x1="168.0" y1="470.0" x2="638.4" y2="470.0" stroke="#d55181" stroke-width="2" stroke-opacity="0.45"/>
<circle cx="638.4" cy="470.0" r="5.5" fill="#d55181" stroke="#1a1a19" stroke-width="2"/>
<text x="806.0" y="474.0" text-anchor="end" font-size="12" font-weight="600" fill="#ffffff">10.9 µs</text>
<text x="152.0" y="498.0" text-anchor="end" font-size="12" fill="#ffffff">wardite</text>
<line x1="168.0" y1="494.0" x2="654.4" y2="494.0" stroke="#d55181" stroke-width="2" stroke-opacity="0.45"/>
<circle cx="654.4" cy="494.0" r="5.5" fill="#d55181" stroke="#1a1a19" stroke-width="2"/>
<text x="806.0" y="498.0" text-anchor="end" font-size="12" font-weight="600" fill="#ffffff">15.0 µs</text>
<text x="152.0" y="522.0" text-anchor="end" font-size="12" fill="#ffffff">pywasm-pypy</text>
<line x1="168.0" y1="518.0" x2="657.3" y2="518.0" stroke="#d55181" stroke-width="2" stroke-opacity="0.45"/>
<circle cx="657.3" cy="518.0" r="5.5" fill="#d55181" stroke="#1a1a19" stroke-width="2"/>
<text x="806.0" y="522.0" text-anchor="end" font-size="12" font-weight="600" fill="#ffffff">15.9 µs</text>
<text x="152.0" y="546.0" text-anchor="end" font-size="12" fill="#ffffff">dewasm-bash</text>
<line x1="168.0" y1="542.0" x2="679.5" y2="542.0" stroke="#008300" stroke-width="2" stroke-opacity="0.45"/>
<circle cx="679.5" cy="542.0" r="5.5" fill="#008300" stroke="#1a1a19" stroke-width="2"/>
<text x="806.0" y="546.0" text-anchor="end" font-size="12" font-weight="600" fill="#ffffff">24.6 µs</text>
<text x="152.0" y="570.0" text-anchor="end" font-size="12" fill="#ffffff">wasm3-python</text>
<line x1="168.0" y1="566.0" x2="683.4" y2="566.0" stroke="#d55181" stroke-width="2" stroke-opacity="0.45"/>
<circle cx="683.4" cy="566.0" r="5.5" fill="#d55181" stroke="#1a1a19" stroke-width="2"/>
<text x="806.0" y="570.0" text-anchor="end" font-size="12" font-weight="600" fill="#ffffff">26.6 µs</text>
<text x="152.0" y="594.0" text-anchor="end" font-size="12" fill="#ffffff">pywasm-cpython</text>
<line x1="168.0" y1="590.0" x2="718.0" y2="590.0" stroke="#d55181" stroke-width="2" stroke-opacity="0.45"/>
<circle cx="718.0" cy="590.0" r="5.5" fill="#d55181" stroke="#1a1a19" stroke-width="2"/>
<text x="806.0" y="594.0" text-anchor="end" font-size="12" font-weight="600" fill="#ffffff">52.7 µs</text>
<text x="14.0" y="24" font-size="15" font-weight="600" fill="#ffffff">wat/i32_alu: seconds per iteration, median of the timed runs (log scale)</text>
<circle cx="19.5" cy="48.0" r="5.5" fill="#3987e5" stroke="#1a1a19" stroke-width="2"/>
<text x="31.0" y="52.0" font-size="12" fill="#c3c2b7">wasmtime (baseline)</text>
<circle cx="179.9" cy="48.0" r="5.5" fill="#008300" stroke="#1a1a19" stroke-width="2"/>
<text x="191.4" y="52.0" font-size="12" fill="#c3c2b7">dewasm backends</text>
<circle cx="313.9" cy="48.0" r="5.5" fill="#c98500" stroke="#1a1a19" stroke-width="2"/>
<text x="325.4" y="52.0" font-size="12" fill="#c3c2b7">native runtimes</text>
<circle cx="447.9" cy="48.0" r="5.5" fill="#d55181" stroke="#1a1a19" stroke-width="2"/>
<text x="459.4" y="52.0" font-size="12" fill="#c3c2b7">wasm interpreters in a host language</text>
</svg>
