<svg xmlns="http://www.w3.org/2000/svg" width="820" height="776" viewBox="0 0 820 776" font-family="system-ui, -apple-system, Segoe UI, sans-serif" role="img" aria-label="wat/i32_div: seconds per iteration for 28 runners on a log scale, fastest first. wasmer is fastest at 7.61 ns, then wasmtime at 7.63 ns; dewasm-bash is slowest at 68.4 µs, a span of 8990x. The table below carries every number.">
<title>wat/i32_div: seconds per iteration for 28 runners on a log scale, fastest first. wasmer is fastest at 7.61 ns, then wasmtime at 7.63 ns; dewasm-bash is slowest at 68.4 µs, a span of 8990x. The table below carries every number.</title>
<rect width="820" height="776" fill="#fcfcfb"/>
<line x1="168.0" y1="68.0" x2="168.0" y2="746.0" stroke="#52514e" stroke-width="1" stroke-opacity="0.25"/>
<text x="168.0" y="762.0" text-anchor="middle" font-size="11" fill="#52514e">1 ns</text>
<line x1="281.7" y1="68.0" x2="281.7" y2="746.0" stroke="#52514e" stroke-width="1" stroke-opacity="0.25"/>
<text x="281.7" y="762.0" text-anchor="middle" font-size="11" fill="#52514e">10 ns</text>
<line x1="395.5" y1="68.0" x2="395.5" y2="746.0" stroke="#52514e" stroke-width="1" stroke-opacity="0.25"/>
<text x="395.5" y="762.0" text-anchor="middle" font-size="11" fill="#52514e">100 ns</text>
<line x1="509.2" y1="68.0" x2="509.2" y2="746.0" stroke="#52514e" stroke-width="1" stroke-opacity="0.25"/>
<text x="509.2" y="762.0" text-anchor="middle" font-size="11" fill="#52514e">1 µs</text>
<line x1="623.0" y1="68.0" x2="623.0" y2="746.0" stroke="#52514e" stroke-width="1" stroke-opacity="0.25"/>
<text x="623.0" y="762.0" text-anchor="middle" font-size="11" fill="#52514e">10 µs</text>
<line x1="168.0" y1="746.0" x2="726.0" y2="746.0" stroke="#52514e" stroke-width="1" stroke-opacity="0.4"/>
<text x="152.0" y="90.0" text-anchor="end" font-size="12" fill="#0b0b0b">wasmer</text>
<line x1="168.0" y1="86.0" x2="268.3" y2="86.0" stroke="#eda100" stroke-width="2" stroke-opacity="0.45"/>
<circle cx="268.3" cy="86.0" r="5.5" fill="#eda100" stroke="#fcfcfb" stroke-width="2"/>
<text x="806.0" y="90.0" text-anchor="end" font-size="12" font-weight="600" fill="#0b0b0b">7.61 ns</text>
<text x="152.0" y="114.0" text-anchor="end" font-size="12" fill="#0b0b0b">wasmtime</text>
<line x1="168.0" y1="110.0" x2="268.4" y2="110.0" stroke="#2a78d6" stroke-width="2" stroke-opacity="0.45"/>
<circle cx="268.4" cy="110.0" r="5.5" fill="#2a78d6" stroke="#fcfcfb" stroke-width="2"/>
<text x="806.0" y="114.0" text-anchor="end" font-size="12" font-weight="600" fill="#0b0b0b">7.63 ns</text>
<text x="152.0" y="138.0" text-anchor="end" font-size="12" fill="#0b0b0b">wazero</text>
<line x1="168.0" y1="134.0" x2="268.4" y2="134.0" stroke="#eda100" stroke-width="2" stroke-opacity="0.45"/>
<circle cx="268.4" cy="134.0" r="5.5" fill="#eda100" stroke="#fcfcfb" stroke-width="2"/>
<text x="806.0" y="138.0" text-anchor="end" font-size="12" font-weight="600" fill="#0b0b0b">7.64 ns</text>
<text x="152.0" y="162.0" text-anchor="end" font-size="12" fill="#0b0b0b">dewasm-go</text>
<line x1="168.0" y1="158.0" x2="268.9" y2="158.0" stroke="#008300" stroke-width="2" stroke-opacity="0.45"/>
<circle cx="268.9" cy="158.0" r="5.5" fill="#008300" stroke="#fcfcfb" stroke-width="2"/>
<text x="806.0" y="162.0" text-anchor="end" font-size="12" font-weight="600" fill="#0b0b0b">7.70 ns</text>
<text x="152.0" y="186.0" text-anchor="end" font-size="12" fill="#0b0b0b">dewasm-tinygo</text>
<line x1="168.0" y1="182.0" x2="269.0" y2="182.0" stroke="#008300" stroke-width="2" stroke-opacity="0.45"/>
<circle cx="269.0" cy="182.0" r="5.5" fill="#008300" stroke="#fcfcfb" stroke-width="2"/>
<text x="806.0" y="186.0" text-anchor="end" font-size="12" font-weight="600" fill="#0b0b0b">7.73 ns</text>
<text x="152.0" y="210.0" text-anchor="end" font-size="12" fill="#0b0b0b">dewasm-java</text>
<line x1="168.0" y1="206.0" x2="270.1" y2="206.0" stroke="#008300" stroke-width="2" stroke-opacity="0.45"/>
<circle cx="270.1" cy="206.0" r="5.5" fill="#008300" stroke="#fcfcfb" stroke-width="2"/>
<text x="806.0" y="210.0" text-anchor="end" font-size="12" font-weight="600" fill="#0b0b0b">7.89 ns</text>
<text x="152.0" y="234.0" text-anchor="end" font-size="12" fill="#0b0b0b">dewasm-codon</text>
<line x1="168.0" y1="230.0" x2="270.7" y2="230.0" stroke="#008300" stroke-width="2" stroke-opacity="0.45"/>
<circle cx="270.7" cy="230.0" r="5.5" fill="#008300" stroke="#fcfcfb" stroke-width="2"/>
<text x="806.0" y="234.0" text-anchor="end" font-size="12" font-weight="600" fill="#0b0b0b">8.00 ns</text>
<text x="152.0" y="258.0" text-anchor="end" font-size="12" fill="#0b0b0b">dewasm-pypy</text>
<line x1="168.0" y1="254.0" x2="299.4" y2="254.0" stroke="#008300" stroke-width="2" stroke-opacity="0.45"/>
<circle cx="299.4" cy="254.0" r="5.5" fill="#008300" stroke="#fcfcfb" stroke-width="2"/>
<text x="806.0" y="258.0" text-anchor="end" font-size="12" font-weight="600" fill="#0b0b0b">14.3 ns</text>
<text x="152.0" y="282.0" text-anchor="end" font-size="12" fill="#0b0b0b">wasm3</text>
<line x1="168.0" y1="278.0" x2="312.5" y2="278.0" stroke="#eda100" stroke-width="2" stroke-opacity="0.45"/>
<circle cx="312.5" cy="278.0" r="5.5" fill="#eda100" stroke="#fcfcfb" stroke-width="2"/>
<text x="806.0" y="282.0" text-anchor="end" font-size="12" font-weight="600" fill="#0b0b0b">18.6 ns</text>
<text x="152.0" y="306.0" text-anchor="end" font-size="12" fill="#0b0b0b">dewasm-monoruby</text>
<line x1="168.0" y1="302.0" x2="376.6" y2="302.0" stroke="#008300" stroke-width="2" stroke-opacity="0.45"/>
<circle cx="376.6" cy="302.0" r="5.5" fill="#008300" stroke="#fcfcfb" stroke-width="2"/>
<text x="806.0" y="306.0" text-anchor="end" font-size="12" font-weight="600" fill="#0b0b0b">68.2 ns</text>
<text x="152.0" y="330.0" text-anchor="end" font-size="12" fill="#0b0b0b">wasmedge</text>
<line x1="168.0" y1="326.0" x2="424.9" y2="326.0" stroke="#eda100" stroke-width="2" stroke-opacity="0.45"/>
<circle cx="424.9" cy="326.0" r="5.5" fill="#eda100" stroke="#fcfcfb" stroke-width="2"/>
<text x="806.0" y="330.0" text-anchor="end" font-size="12" font-weight="600" fill="#0b0b0b">181 ns</text>
<text x="152.0" y="354.0" text-anchor="end" font-size="12" fill="#0b0b0b">dewasm-ruby-yjit</text>
<line x1="168.0" y1="350.0" x2="431.4" y2="350.0" stroke="#008300" stroke-width="2" stroke-opacity="0.45"/>
<circle cx="431.4" cy="350.0" r="5.5" fill="#008300" stroke="#fcfcfb" stroke-width="2"/>
<text x="806.0" y="354.0" text-anchor="end" font-size="12" font-weight="600" fill="#0b0b0b">207 ns</text>
<text x="152.0" y="378.0" text-anchor="end" font-size="12" fill="#0b0b0b">dewasm-ruby-zjit</text>
<line x1="168.0" y1="374.0" x2="442.4" y2="374.0" stroke="#008300" stroke-width="2" stroke-opacity="0.45"/>
<circle cx="442.4" cy="374.0" r="5.5" fill="#008300" stroke="#fcfcfb" stroke-width="2"/>
<text x="806.0" y="378.0" text-anchor="end" font-size="12" font-weight="600" fill="#0b0b0b">259 ns</text>
<text x="152.0" y="402.0" text-anchor="end" font-size="12" fill="#0b0b0b">dewasm-ruby</text>
<line x1="168.0" y1="398.0" x2="471.5" y2="398.0" stroke="#008300" stroke-width="2" stroke-opacity="0.45"/>
<circle cx="471.5" cy="398.0" r="5.5" fill="#008300" stroke="#fcfcfb" stroke-width="2"/>
<text x="806.0" y="402.0" text-anchor="end" font-size="12" font-weight="600" fill="#0b0b0b">466 ns</text>
<text x="152.0" y="426.0" text-anchor="end" font-size="12" fill="#0b0b0b">dewasm-python</text>
<line x1="168.0" y1="422.0" x2="508.7" y2="422.0" stroke="#008300" stroke-width="2" stroke-opacity="0.45"/>
<circle cx="508.7" cy="422.0" r="5.5" fill="#008300" stroke="#fcfcfb" stroke-width="2"/>
<text x="806.0" y="426.0" text-anchor="end" font-size="12" font-weight="600" fill="#0b0b0b">989 ns</text>
<text x="152.0" y="450.0" text-anchor="end" font-size="12" fill="#0b0b0b">dewasm-perl</text>
<line x1="168.0" y1="446.0" x2="519.3" y2="446.0" stroke="#008300" stroke-width="2" stroke-opacity="0.45"/>
<circle cx="519.3" cy="446.0" r="5.5" fill="#008300" stroke="#fcfcfb" stroke-width="2"/>
<text x="806.0" y="450.0" text-anchor="end" font-size="12" font-weight="600" fill="#0b0b0b">1.23 µs</text>
<text x="152.0" y="474.0" text-anchor="end" font-size="12" fill="#0b0b0b">dewasm-python-jit</text>
<line x1="168.0" y1="470.0" x2="519.4" y2="470.0" stroke="#008300" stroke-width="2" stroke-opacity="0.45"/>
<circle cx="519.4" cy="470.0" r="5.5" fill="#008300" stroke="#fcfcfb" stroke-width="2"/>
<text x="806.0" y="474.0" text-anchor="end" font-size="12" font-weight="600" fill="#0b0b0b">1.23 µs</text>
<text x="152.0" y="498.0" text-anchor="end" font-size="12" fill="#0b0b0b">dewasm-graalpy</text>
<line x1="168.0" y1="494.0" x2="535.1" y2="494.0" stroke="#008300" stroke-width="2" stroke-opacity="0.45"/>
<circle cx="535.1" cy="494.0" r="5.5" fill="#008300" stroke="#fcfcfb" stroke-width="2"/>
<text x="806.0" y="498.0" text-anchor="end" font-size="12" font-weight="600" fill="#0b0b0b">1.69 µs</text>
<text x="152.0" y="522.0" text-anchor="end" font-size="12" fill="#0b0b0b">wasm3-ruby-yjit</text>
<line x1="168.0" y1="518.0" x2="595.4" y2="518.0" stroke="#e87ba4" stroke-width="2" stroke-opacity="0.45"/>
<circle cx="595.4" cy="518.0" r="5.5" fill="#e87ba4" stroke="#fcfcfb" stroke-width="2"/>
<text x="806.0" y="522.0" text-anchor="end" font-size="12" font-weight="600" fill="#0b0b0b">5.72 µs</text>
<text x="152.0" y="546.0" text-anchor="end" font-size="12" fill="#0b0b0b">wardite-yjit</text>
<line x1="168.0" y1="542.0" x2="618.3" y2="542.0" stroke="#e87ba4" stroke-width="2" stroke-opacity="0.45"/>
<circle cx="618.3" cy="542.0" r="5.5" fill="#e87ba4" stroke="#fcfcfb" stroke-width="2"/>
<text x="806.0" y="546.0" text-anchor="end" font-size="12" font-weight="600" fill="#0b0b0b">9.10 µs</text>
<text x="152.0" y="570.0" text-anchor="end" font-size="12" fill="#0b0b0b">wasm3-pypy</text>
<line x1="168.0" y1="566.0" x2="625.8" y2="566.0" stroke="#e87ba4" stroke-width="2" stroke-opacity="0.45"/>
<circle cx="625.8" cy="566.0" r="5.5" fill="#e87ba4" stroke="#fcfcfb" stroke-width="2"/>
<text x="806.0" y="570.0" text-anchor="end" font-size="12" font-weight="600" fill="#0b0b0b">10.6 µs</text>
<text x="152.0" y="594.0" text-anchor="end" font-size="12" fill="#0b0b0b">wasm3-ruby</text>
<line x1="168.0" y1="590.0" x2="644.2" y2="590.0" stroke="#e87ba4" stroke-width="2" stroke-opacity="0.45"/>
<circle cx="644.2" cy="590.0" r="5.5" fill="#e87ba4" stroke="#fcfcfb" stroke-width="2"/>
<text x="806.0" y="594.0" text-anchor="end" font-size="12" font-weight="600" fill="#0b0b0b">15.4 µs</text>
<text x="152.0" y="618.0" text-anchor="end" font-size="12" fill="#0b0b0b">wardite</text>
<line x1="168.0" y1="614.0" x2="654.7" y2="614.0" stroke="#e87ba4" stroke-width="2" stroke-opacity="0.45"/>
<circle cx="654.7" cy="614.0" r="5.5" fill="#e87ba4" stroke="#fcfcfb" stroke-width="2"/>
<text x="806.0" y="618.0" text-anchor="end" font-size="12" font-weight="600" fill="#0b0b0b">19.0 µs</text>
<text x="152.0" y="642.0" text-anchor="end" font-size="12" fill="#0b0b0b">dewasm-jruby</text>
<line x1="168.0" y1="638.0" x2="664.7" y2="638.0" stroke="#008300" stroke-width="2" stroke-opacity="0.45"/>
<circle cx="664.7" cy="638.0" r="5.5" fill="#008300" stroke="#fcfcfb" stroke-width="2"/>
<text x="806.0" y="642.0" text-anchor="end" font-size="12" font-weight="600" fill="#0b0b0b">23.2 µs</text>
<text x="152.0" y="666.0" text-anchor="end" font-size="12" fill="#0b0b0b">wasm3-python</text>
<line x1="168.0" y1="662.0" x2="682.6" y2="662.0" stroke="#e87ba4" stroke-width="2" stroke-opacity="0.45"/>
<circle cx="682.6" cy="662.0" r="5.5" fill="#e87ba4" stroke="#fcfcfb" stroke-width="2"/>
<text x="806.0" y="666.0" text-anchor="end" font-size="12" font-weight="600" fill="#0b0b0b">33.4 µs</text>
<text x="152.0" y="690.0" text-anchor="end" font-size="12" fill="#0b0b0b">pywasm-pypy</text>
<line x1="168.0" y1="686.0" x2="698.0" y2="686.0" stroke="#e87ba4" stroke-width="2" stroke-opacity="0.45"/>
<circle cx="698.0" cy="686.0" r="5.5" fill="#e87ba4" stroke="#fcfcfb" stroke-width="2"/>
<text x="806.0" y="690.0" text-anchor="end" font-size="12" font-weight="600" fill="#0b0b0b">45.7 µs</text>
<text x="152.0" y="714.0" text-anchor="end" font-size="12" fill="#0b0b0b">pywasm-cpython</text>
<line x1="168.0" y1="710.0" x2="716.5" y2="710.0" stroke="#e87ba4" stroke-width="2" stroke-opacity="0.45"/>
<circle cx="716.5" cy="710.0" r="5.5" fill="#e87ba4" stroke="#fcfcfb" stroke-width="2"/>
<text x="806.0" y="714.0" text-anchor="end" font-size="12" font-weight="600" fill="#0b0b0b">66.4 µs</text>
<text x="152.0" y="738.0" text-anchor="end" font-size="12" fill="#0b0b0b">dewasm-bash</text>
<line x1="168.0" y1="734.0" x2="718.0" y2="734.0" stroke="#008300" stroke-width="2" stroke-opacity="0.45"/>
<circle cx="718.0" cy="734.0" r="5.5" fill="#008300" stroke="#fcfcfb" stroke-width="2"/>
<text x="806.0" y="738.0" text-anchor="end" font-size="12" font-weight="600" fill="#0b0b0b">68.4 µs</text>
<text x="14.0" y="24" font-size="15" font-weight="600" fill="#0b0b0b">wat/i32_div: seconds per iteration, median of the timed runs (log scale)</text>
<circle cx="19.5" cy="48.0" r="5.5" fill="#2a78d6" stroke="#fcfcfb" stroke-width="2"/>
<text x="31.0" y="52.0" font-size="12" fill="#52514e">wasmtime (baseline)</text>
<circle cx="179.9" cy="48.0" r="5.5" fill="#008300" stroke="#fcfcfb" stroke-width="2"/>
<text x="191.4" y="52.0" font-size="12" fill="#52514e">dewasm backends</text>
<circle cx="313.9" cy="48.0" r="5.5" fill="#eda100" stroke="#fcfcfb" stroke-width="2"/>
<text x="325.4" y="52.0" font-size="12" fill="#52514e">native runtimes</text>
<circle cx="447.9" cy="48.0" r="5.5" fill="#e87ba4" stroke="#fcfcfb" stroke-width="2"/>
<text x="459.4" y="52.0" font-size="12" fill="#52514e">wasm interpreters in a host language</text>
</svg>
