<svg xmlns="http://www.w3.org/2000/svg" width="820" height="368" viewBox="0 0 820 368" font-family="system-ui, -apple-system, Segoe UI, sans-serif" role="img" aria-label="wat/eh_try: seconds per iteration for 11 runners on a log scale, fastest first. wasmer is fastest at 1.25 ns, then dewasm-java at 1.42 ns; dewasm-perl is slowest at 511 ns, a span of 409x. The table below carries every number.">
<title>wat/eh_try: seconds per iteration for 11 runners on a log scale, fastest first. wasmer is fastest at 1.25 ns, then dewasm-java at 1.42 ns; dewasm-perl is slowest at 511 ns, a span of 409x. The table below carries every number.</title>
<rect width="820" height="368" fill="#fcfcfb"/>
<line x1="168.0" y1="68.0" x2="168.0" y2="338.0" stroke="#52514e" stroke-width="1" stroke-opacity="0.25"/>
<text x="168.0" y="354.0" text-anchor="middle" font-size="11" fill="#52514e">1 ns</text>
<line x1="371.1" y1="68.0" x2="371.1" y2="338.0" stroke="#52514e" stroke-width="1" stroke-opacity="0.25"/>
<text x="371.1" y="354.0" text-anchor="middle" font-size="11" fill="#52514e">10 ns</text>
<line x1="574.2" y1="68.0" x2="574.2" y2="338.0" stroke="#52514e" stroke-width="1" stroke-opacity="0.25"/>
<text x="574.2" y="354.0" text-anchor="middle" font-size="11" fill="#52514e">100 ns</text>
<line x1="168.0" y1="338.0" x2="726.0" y2="338.0" stroke="#52514e" stroke-width="1" stroke-opacity="0.4"/>
<text x="152.0" y="90.0" text-anchor="end" font-size="12" fill="#0b0b0b">wasmer</text>
<line x1="168.0" y1="86.0" x2="187.6" y2="86.0" stroke="#eda100" stroke-width="2" stroke-opacity="0.45"/>
<circle cx="187.6" cy="86.0" r="5.5" fill="#eda100" stroke="#fcfcfb" stroke-width="2"/>
<text x="806.0" y="90.0" text-anchor="end" font-size="12" font-weight="600" fill="#0b0b0b">1.25 ns</text>
<text x="152.0" y="114.0" text-anchor="end" font-size="12" fill="#0b0b0b">dewasm-java</text>
<line x1="168.0" y1="110.0" x2="198.8" y2="110.0" stroke="#008300" stroke-width="2" stroke-opacity="0.45"/>
<circle cx="198.8" cy="110.0" r="5.5" fill="#008300" stroke="#fcfcfb" stroke-width="2"/>
<text x="806.0" y="114.0" text-anchor="end" font-size="12" font-weight="600" fill="#0b0b0b">1.42 ns</text>
<text x="152.0" y="138.0" text-anchor="end" font-size="12" fill="#0b0b0b">dewasm-pypy</text>
<line x1="168.0" y1="134.0" x2="251.3" y2="134.0" stroke="#008300" stroke-width="2" stroke-opacity="0.45"/>
<circle cx="251.3" cy="134.0" r="5.5" fill="#008300" stroke="#fcfcfb" stroke-width="2"/>
<text x="806.0" y="138.0" text-anchor="end" font-size="12" font-weight="600" fill="#0b0b0b">2.57 ns</text>
<text x="152.0" y="162.0" text-anchor="end" font-size="12" fill="#0b0b0b">wasmtime</text>
<line x1="168.0" y1="158.0" x2="256.9" y2="158.0" stroke="#2a78d6" stroke-width="2" stroke-opacity="0.45"/>
<circle cx="256.9" cy="158.0" r="5.5" fill="#2a78d6" stroke="#fcfcfb" stroke-width="2"/>
<text x="806.0" y="162.0" text-anchor="end" font-size="12" font-weight="600" fill="#0b0b0b">2.74 ns</text>
<text x="152.0" y="186.0" text-anchor="end" font-size="12" fill="#0b0b0b">dewasm-go</text>
<line x1="168.0" y1="182.0" x2="295.2" y2="182.0" stroke="#008300" stroke-width="2" stroke-opacity="0.45"/>
<circle cx="295.2" cy="182.0" r="5.5" fill="#008300" stroke="#fcfcfb" stroke-width="2"/>
<text x="806.0" y="186.0" text-anchor="end" font-size="12" font-weight="600" fill="#0b0b0b">4.23 ns</text>
<text x="152.0" y="210.0" text-anchor="end" font-size="12" fill="#0b0b0b">wasmedge</text>
<line x1="168.0" y1="206.0" x2="587.0" y2="206.0" stroke="#eda100" stroke-width="2" stroke-opacity="0.45"/>
<circle cx="587.0" cy="206.0" r="5.5" fill="#eda100" stroke="#fcfcfb" stroke-width="2"/>
<text x="806.0" y="210.0" text-anchor="end" font-size="12" font-weight="600" fill="#0b0b0b">116 ns</text>
<text x="152.0" y="234.0" text-anchor="end" font-size="12" fill="#0b0b0b">dewasm-ruby</text>
<line x1="168.0" y1="230.0" x2="589.8" y2="230.0" stroke="#008300" stroke-width="2" stroke-opacity="0.45"/>
<circle cx="589.8" cy="230.0" r="5.5" fill="#008300" stroke="#fcfcfb" stroke-width="2"/>
<text x="806.0" y="234.0" text-anchor="end" font-size="12" font-weight="600" fill="#0b0b0b">119 ns</text>
<text x="152.0" y="258.0" text-anchor="end" font-size="12" fill="#0b0b0b">dewasm-ruby-zjit</text>
<line x1="168.0" y1="254.0" x2="590.5" y2="254.0" stroke="#008300" stroke-width="2" stroke-opacity="0.45"/>
<circle cx="590.5" cy="254.0" r="5.5" fill="#008300" stroke="#fcfcfb" stroke-width="2"/>
<text x="806.0" y="258.0" text-anchor="end" font-size="12" font-weight="600" fill="#0b0b0b">120 ns</text>
<text x="152.0" y="282.0" text-anchor="end" font-size="12" fill="#0b0b0b">dewasm-ruby-yjit</text>
<line x1="168.0" y1="278.0" x2="590.8" y2="278.0" stroke="#008300" stroke-width="2" stroke-opacity="0.45"/>
<circle cx="590.8" cy="278.0" r="5.5" fill="#008300" stroke="#fcfcfb" stroke-width="2"/>
<text x="806.0" y="282.0" text-anchor="end" font-size="12" font-weight="600" fill="#0b0b0b">121 ns</text>
<text x="152.0" y="306.0" text-anchor="end" font-size="12" fill="#0b0b0b">dewasm-python</text>
<line x1="168.0" y1="302.0" x2="634.3" y2="302.0" stroke="#008300" stroke-width="2" stroke-opacity="0.45"/>
<circle cx="634.3" cy="302.0" r="5.5" fill="#008300" stroke="#fcfcfb" stroke-width="2"/>
<text x="806.0" y="306.0" text-anchor="end" font-size="12" font-weight="600" fill="#0b0b0b">198 ns</text>
<text x="152.0" y="330.0" text-anchor="end" font-size="12" fill="#0b0b0b">dewasm-perl</text>
<line x1="168.0" y1="326.0" x2="718.0" y2="326.0" stroke="#008300" stroke-width="2" stroke-opacity="0.45"/>
<circle cx="718.0" cy="326.0" r="5.5" fill="#008300" stroke="#fcfcfb" stroke-width="2"/>
<text x="806.0" y="330.0" text-anchor="end" font-size="12" font-weight="600" fill="#0b0b0b">511 ns</text>
<text x="14.0" y="24" font-size="15" font-weight="600" fill="#0b0b0b">wat/eh_try: seconds per iteration, median of the timed runs (log scale)</text>
<circle cx="19.5" cy="48.0" r="5.5" fill="#2a78d6" stroke="#fcfcfb" stroke-width="2"/>
<text x="31.0" y="52.0" font-size="12" fill="#52514e">wasmtime (baseline)</text>
<circle cx="179.9" cy="48.0" r="5.5" fill="#008300" stroke="#fcfcfb" stroke-width="2"/>
<text x="191.4" y="52.0" font-size="12" fill="#52514e">dewasm backends</text>
<circle cx="313.9" cy="48.0" r="5.5" fill="#eda100" stroke="#fcfcfb" stroke-width="2"/>
<text x="325.4" y="52.0" font-size="12" fill="#52514e">native runtimes</text>
<circle cx="447.9" cy="48.0" r="5.5" fill="#e87ba4" stroke="#fcfcfb" stroke-width="2"/>
<text x="459.4" y="52.0" font-size="12" fill="#52514e">wasm interpreters in a host language</text>
</svg>
