<svg xmlns="http://www.w3.org/2000/svg" width="820" height="776" viewBox="0 0 820 776" font-family="system-ui, -apple-system, Segoe UI, sans-serif" role="img" aria-label="wat/mem_narrow: seconds per iteration for 28 runners on a log scale, fastest first. wasmtime is fastest at 1.49 ns, then wasmer at 1.57 ns; pywasm-cpython is slowest at 86.5 µs, a span of 58200x. The table below carries every number.">
<title>wat/mem_narrow: seconds per iteration for 28 runners on a log scale, fastest first. wasmtime is fastest at 1.49 ns, then wasmer at 1.57 ns; pywasm-cpython is slowest at 86.5 µs, a span of 58200x. The table below carries every number.</title>
<rect width="820" height="776" fill="#fcfcfb"/>
<line x1="168.0" y1="68.0" x2="168.0" y2="746.0" stroke="#52514e" stroke-width="1" stroke-opacity="0.25"/>
<text x="168.0" y="762.0" text-anchor="middle" font-size="11" fill="#52514e">1 ns</text>
<line x1="279.4" y1="68.0" x2="279.4" y2="746.0" stroke="#52514e" stroke-width="1" stroke-opacity="0.25"/>
<text x="279.4" y="762.0" text-anchor="middle" font-size="11" fill="#52514e">10 ns</text>
<line x1="390.8" y1="68.0" x2="390.8" y2="746.0" stroke="#52514e" stroke-width="1" stroke-opacity="0.25"/>
<text x="390.8" y="762.0" text-anchor="middle" font-size="11" fill="#52514e">100 ns</text>
<line x1="502.2" y1="68.0" x2="502.2" y2="746.0" stroke="#52514e" stroke-width="1" stroke-opacity="0.25"/>
<text x="502.2" y="762.0" text-anchor="middle" font-size="11" fill="#52514e">1 µs</text>
<line x1="613.6" y1="68.0" x2="613.6" y2="746.0" stroke="#52514e" stroke-width="1" stroke-opacity="0.25"/>
<text x="613.6" y="762.0" text-anchor="middle" font-size="11" fill="#52514e">10 µs</text>
<line x1="168.0" y1="746.0" x2="726.0" y2="746.0" stroke="#52514e" stroke-width="1" stroke-opacity="0.4"/>
<text x="152.0" y="90.0" text-anchor="end" font-size="12" fill="#0b0b0b">wasmtime</text>
<line x1="168.0" y1="86.0" x2="187.2" y2="86.0" stroke="#2a78d6" stroke-width="2" stroke-opacity="0.45"/>
<circle cx="187.2" cy="86.0" r="5.5" fill="#2a78d6" stroke="#fcfcfb" stroke-width="2"/>
<text x="806.0" y="90.0" text-anchor="end" font-size="12" font-weight="600" fill="#0b0b0b">1.49 ns</text>
<text x="152.0" y="114.0" text-anchor="end" font-size="12" fill="#0b0b0b">wasmer</text>
<line x1="168.0" y1="110.0" x2="189.7" y2="110.0" stroke="#eda100" stroke-width="2" stroke-opacity="0.45"/>
<circle cx="189.7" cy="110.0" r="5.5" fill="#eda100" stroke="#fcfcfb" stroke-width="2"/>
<text x="806.0" y="114.0" text-anchor="end" font-size="12" font-weight="600" fill="#0b0b0b">1.57 ns</text>
<text x="152.0" y="138.0" text-anchor="end" font-size="12" fill="#0b0b0b">dewasm-go</text>
<line x1="168.0" y1="134.0" x2="212.3" y2="134.0" stroke="#008300" stroke-width="2" stroke-opacity="0.45"/>
<circle cx="212.3" cy="134.0" r="5.5" fill="#008300" stroke="#fcfcfb" stroke-width="2"/>
<text x="806.0" y="138.0" text-anchor="end" font-size="12" font-weight="600" fill="#0b0b0b">2.50 ns</text>
<text x="152.0" y="162.0" text-anchor="end" font-size="12" fill="#0b0b0b">wazero</text>
<line x1="168.0" y1="158.0" x2="212.4" y2="158.0" stroke="#eda100" stroke-width="2" stroke-opacity="0.45"/>
<circle cx="212.4" cy="158.0" r="5.5" fill="#eda100" stroke="#fcfcfb" stroke-width="2"/>
<text x="806.0" y="162.0" text-anchor="end" font-size="12" font-weight="600" fill="#0b0b0b">2.51 ns</text>
<text x="152.0" y="186.0" text-anchor="end" font-size="12" fill="#0b0b0b">dewasm-codon</text>
<line x1="168.0" y1="182.0" x2="214.4" y2="182.0" stroke="#008300" stroke-width="2" stroke-opacity="0.45"/>
<circle cx="214.4" cy="182.0" r="5.5" fill="#008300" stroke="#fcfcfb" stroke-width="2"/>
<text x="806.0" y="186.0" text-anchor="end" font-size="12" font-weight="600" fill="#0b0b0b">2.61 ns</text>
<text x="152.0" y="210.0" text-anchor="end" font-size="12" fill="#0b0b0b">dewasm-tinygo</text>
<line x1="168.0" y1="206.0" x2="217.0" y2="206.0" stroke="#008300" stroke-width="2" stroke-opacity="0.45"/>
<circle cx="217.0" cy="206.0" r="5.5" fill="#008300" stroke="#fcfcfb" stroke-width="2"/>
<text x="806.0" y="210.0" text-anchor="end" font-size="12" font-weight="600" fill="#0b0b0b">2.75 ns</text>
<text x="152.0" y="234.0" text-anchor="end" font-size="12" fill="#0b0b0b">dewasm-java</text>
<line x1="168.0" y1="230.0" x2="239.8" y2="230.0" stroke="#008300" stroke-width="2" stroke-opacity="0.45"/>
<circle cx="239.8" cy="230.0" r="5.5" fill="#008300" stroke="#fcfcfb" stroke-width="2"/>
<text x="806.0" y="234.0" text-anchor="end" font-size="12" font-weight="600" fill="#0b0b0b">4.41 ns</text>
<text x="152.0" y="258.0" text-anchor="end" font-size="12" fill="#0b0b0b">wasm3</text>
<line x1="168.0" y1="254.0" x2="302.0" y2="254.0" stroke="#eda100" stroke-width="2" stroke-opacity="0.45"/>
<circle cx="302.0" cy="254.0" r="5.5" fill="#eda100" stroke="#fcfcfb" stroke-width="2"/>
<text x="806.0" y="258.0" text-anchor="end" font-size="12" font-weight="600" fill="#0b0b0b">15.9 ns</text>
<text x="152.0" y="282.0" text-anchor="end" font-size="12" fill="#0b0b0b">dewasm-monoruby</text>
<line x1="168.0" y1="278.0" x2="353.1" y2="278.0" stroke="#008300" stroke-width="2" stroke-opacity="0.45"/>
<circle cx="353.1" cy="278.0" r="5.5" fill="#008300" stroke="#fcfcfb" stroke-width="2"/>
<text x="806.0" y="282.0" text-anchor="end" font-size="12" font-weight="600" fill="#0b0b0b">45.8 ns</text>
<text x="152.0" y="306.0" text-anchor="end" font-size="12" fill="#0b0b0b">dewasm-pypy</text>
<line x1="168.0" y1="302.0" x2="374.2" y2="302.0" stroke="#008300" stroke-width="2" stroke-opacity="0.45"/>
<circle cx="374.2" cy="302.0" r="5.5" fill="#008300" stroke="#fcfcfb" stroke-width="2"/>
<text x="806.0" y="306.0" text-anchor="end" font-size="12" font-weight="600" fill="#0b0b0b">71.0 ns</text>
<text x="152.0" y="330.0" text-anchor="end" font-size="12" fill="#0b0b0b">wasmedge</text>
<line x1="168.0" y1="326.0" x2="435.3" y2="326.0" stroke="#eda100" stroke-width="2" stroke-opacity="0.45"/>
<circle cx="435.3" cy="326.0" r="5.5" fill="#eda100" stroke="#fcfcfb" stroke-width="2"/>
<text x="806.0" y="330.0" text-anchor="end" font-size="12" font-weight="600" fill="#0b0b0b">251 ns</text>
<text x="152.0" y="354.0" text-anchor="end" font-size="12" fill="#0b0b0b">dewasm-ruby-yjit</text>
<line x1="168.0" y1="350.0" x2="451.9" y2="350.0" stroke="#008300" stroke-width="2" stroke-opacity="0.45"/>
<circle cx="451.9" cy="350.0" r="5.5" fill="#008300" stroke="#fcfcfb" stroke-width="2"/>
<text x="806.0" y="354.0" text-anchor="end" font-size="12" font-weight="600" fill="#0b0b0b">353 ns</text>
<text x="152.0" y="378.0" text-anchor="end" font-size="12" fill="#0b0b0b">dewasm-ruby-zjit</text>
<line x1="168.0" y1="374.0" x2="454.4" y2="374.0" stroke="#008300" stroke-width="2" stroke-opacity="0.45"/>
<circle cx="454.4" cy="374.0" r="5.5" fill="#008300" stroke="#fcfcfb" stroke-width="2"/>
<text x="806.0" y="378.0" text-anchor="end" font-size="12" font-weight="600" fill="#0b0b0b">372 ns</text>
<text x="152.0" y="402.0" text-anchor="end" font-size="12" fill="#0b0b0b">dewasm-ruby</text>
<line x1="168.0" y1="398.0" x2="473.6" y2="398.0" stroke="#008300" stroke-width="2" stroke-opacity="0.45"/>
<circle cx="473.6" cy="398.0" r="5.5" fill="#008300" stroke="#fcfcfb" stroke-width="2"/>
<text x="806.0" y="402.0" text-anchor="end" font-size="12" font-weight="600" fill="#0b0b0b">554 ns</text>
<text x="152.0" y="426.0" text-anchor="end" font-size="12" fill="#0b0b0b">dewasm-perl</text>
<line x1="168.0" y1="422.0" x2="523.6" y2="422.0" stroke="#008300" stroke-width="2" stroke-opacity="0.45"/>
<circle cx="523.6" cy="422.0" r="5.5" fill="#008300" stroke="#fcfcfb" stroke-width="2"/>
<text x="806.0" y="426.0" text-anchor="end" font-size="12" font-weight="600" fill="#0b0b0b">1.56 µs</text>
<text x="152.0" y="450.0" text-anchor="end" font-size="12" fill="#0b0b0b">dewasm-python</text>
<line x1="168.0" y1="446.0" x2="532.2" y2="446.0" stroke="#008300" stroke-width="2" stroke-opacity="0.45"/>
<circle cx="532.2" cy="446.0" r="5.5" fill="#008300" stroke="#fcfcfb" stroke-width="2"/>
<text x="806.0" y="450.0" text-anchor="end" font-size="12" font-weight="600" fill="#0b0b0b">1.86 µs</text>
<text x="152.0" y="474.0" text-anchor="end" font-size="12" fill="#0b0b0b">dewasm-python-jit</text>
<line x1="168.0" y1="470.0" x2="546.4" y2="470.0" stroke="#008300" stroke-width="2" stroke-opacity="0.45"/>
<circle cx="546.4" cy="470.0" r="5.5" fill="#008300" stroke="#fcfcfb" stroke-width="2"/>
<text x="806.0" y="474.0" text-anchor="end" font-size="12" font-weight="600" fill="#0b0b0b">2.49 µs</text>
<text x="152.0" y="498.0" text-anchor="end" font-size="12" fill="#0b0b0b">dewasm-jruby</text>
<line x1="168.0" y1="494.0" x2="565.6" y2="494.0" stroke="#008300" stroke-width="2" stroke-opacity="0.45"/>
<circle cx="565.6" cy="494.0" r="5.5" fill="#008300" stroke="#fcfcfb" stroke-width="2"/>
<text x="806.0" y="498.0" text-anchor="end" font-size="12" font-weight="600" fill="#0b0b0b">3.71 µs</text>
<text x="152.0" y="522.0" text-anchor="end" font-size="12" fill="#0b0b0b">dewasm-graalpy</text>
<line x1="168.0" y1="518.0" x2="575.1" y2="518.0" stroke="#008300" stroke-width="2" stroke-opacity="0.45"/>
<circle cx="575.1" cy="518.0" r="5.5" fill="#008300" stroke="#fcfcfb" stroke-width="2"/>
<text x="806.0" y="522.0" text-anchor="end" font-size="12" font-weight="600" fill="#0b0b0b">4.51 µs</text>
<text x="152.0" y="546.0" text-anchor="end" font-size="12" fill="#0b0b0b">wasm3-ruby-yjit</text>
<line x1="168.0" y1="542.0" x2="601.9" y2="542.0" stroke="#e87ba4" stroke-width="2" stroke-opacity="0.45"/>
<circle cx="601.9" cy="542.0" r="5.5" fill="#e87ba4" stroke="#fcfcfb" stroke-width="2"/>
<text x="806.0" y="546.0" text-anchor="end" font-size="12" font-weight="600" fill="#0b0b0b">7.86 µs</text>
<text x="152.0" y="570.0" text-anchor="end" font-size="12" fill="#0b0b0b">wardite-yjit</text>
<line x1="168.0" y1="566.0" x2="634.2" y2="566.0" stroke="#e87ba4" stroke-width="2" stroke-opacity="0.45"/>
<circle cx="634.2" cy="566.0" r="5.5" fill="#e87ba4" stroke="#fcfcfb" stroke-width="2"/>
<text x="806.0" y="570.0" text-anchor="end" font-size="12" font-weight="600" fill="#0b0b0b">15.3 µs</text>
<text x="152.0" y="594.0" text-anchor="end" font-size="12" fill="#0b0b0b">wasm3-ruby</text>
<line x1="168.0" y1="590.0" x2="649.2" y2="590.0" stroke="#e87ba4" stroke-width="2" stroke-opacity="0.45"/>
<circle cx="649.2" cy="590.0" r="5.5" fill="#e87ba4" stroke="#fcfcfb" stroke-width="2"/>
<text x="806.0" y="594.0" text-anchor="end" font-size="12" font-weight="600" fill="#0b0b0b">20.8 µs</text>
<text x="152.0" y="618.0" text-anchor="end" font-size="12" fill="#0b0b0b">wasm3-pypy</text>
<line x1="168.0" y1="614.0" x2="653.3" y2="614.0" stroke="#e87ba4" stroke-width="2" stroke-opacity="0.45"/>
<circle cx="653.3" cy="614.0" r="5.5" fill="#e87ba4" stroke="#fcfcfb" stroke-width="2"/>
<text x="806.0" y="618.0" text-anchor="end" font-size="12" font-weight="600" fill="#0b0b0b">22.7 µs</text>
<text x="152.0" y="642.0" text-anchor="end" font-size="12" fill="#0b0b0b">wardite</text>
<line x1="168.0" y1="638.0" x2="664.0" y2="638.0" stroke="#e87ba4" stroke-width="2" stroke-opacity="0.45"/>
<circle cx="664.0" cy="638.0" r="5.5" fill="#e87ba4" stroke="#fcfcfb" stroke-width="2"/>
<text x="806.0" y="642.0" text-anchor="end" font-size="12" font-weight="600" fill="#0b0b0b">28.3 µs</text>
<text x="152.0" y="666.0" text-anchor="end" font-size="12" fill="#0b0b0b">pywasm-pypy</text>
<line x1="168.0" y1="662.0" x2="687.2" y2="662.0" stroke="#e87ba4" stroke-width="2" stroke-opacity="0.45"/>
<circle cx="687.2" cy="662.0" r="5.5" fill="#e87ba4" stroke="#fcfcfb" stroke-width="2"/>
<text x="806.0" y="666.0" text-anchor="end" font-size="12" font-weight="600" fill="#0b0b0b">45.8 µs</text>
<text x="152.0" y="690.0" text-anchor="end" font-size="12" fill="#0b0b0b">wasm3-python</text>
<line x1="168.0" y1="686.0" x2="688.2" y2="686.0" stroke="#e87ba4" stroke-width="2" stroke-opacity="0.45"/>
<circle cx="688.2" cy="686.0" r="5.5" fill="#e87ba4" stroke="#fcfcfb" stroke-width="2"/>
<text x="806.0" y="690.0" text-anchor="end" font-size="12" font-weight="600" fill="#0b0b0b">46.7 µs</text>
<text x="152.0" y="714.0" text-anchor="end" font-size="12" fill="#0b0b0b">dewasm-bash</text>
<line x1="168.0" y1="710.0" x2="691.4" y2="710.0" stroke="#008300" stroke-width="2" stroke-opacity="0.45"/>
<circle cx="691.4" cy="710.0" r="5.5" fill="#008300" stroke="#fcfcfb" stroke-width="2"/>
<text x="806.0" y="714.0" text-anchor="end" font-size="12" font-weight="600" fill="#0b0b0b">49.9 µs</text>
<text x="152.0" y="738.0" text-anchor="end" font-size="12" fill="#0b0b0b">pywasm-cpython</text>
<line x1="168.0" y1="734.0" x2="718.0" y2="734.0" stroke="#e87ba4" stroke-width="2" stroke-opacity="0.45"/>
<circle cx="718.0" cy="734.0" r="5.5" fill="#e87ba4" stroke="#fcfcfb" stroke-width="2"/>
<text x="806.0" y="738.0" text-anchor="end" font-size="12" font-weight="600" fill="#0b0b0b">86.5 µs</text>
<text x="14.0" y="24" font-size="15" font-weight="600" fill="#0b0b0b">wat/mem_narrow: seconds per iteration, median of the timed runs (log scale)</text>
<circle cx="19.5" cy="48.0" r="5.5" fill="#2a78d6" stroke="#fcfcfb" stroke-width="2"/>
<text x="31.0" y="52.0" font-size="12" fill="#52514e">wasmtime (baseline)</text>
<circle cx="179.9" cy="48.0" r="5.5" fill="#008300" stroke="#fcfcfb" stroke-width="2"/>
<text x="191.4" y="52.0" font-size="12" fill="#52514e">dewasm backends</text>
<circle cx="313.9" cy="48.0" r="5.5" fill="#eda100" stroke="#fcfcfb" stroke-width="2"/>
<text x="325.4" y="52.0" font-size="12" fill="#52514e">native runtimes</text>
<circle cx="447.9" cy="48.0" r="5.5" fill="#e87ba4" stroke="#fcfcfb" stroke-width="2"/>
<text x="459.4" y="52.0" font-size="12" fill="#52514e">wasm interpreters in a host language</text>
</svg>
