<svg xmlns="http://www.w3.org/2000/svg" width="820" height="776" viewBox="0 0 820 776" font-family="system-ui, -apple-system, Segoe UI, sans-serif" role="img" aria-label="wat/f64_alu: seconds per iteration for 28 runners on a log scale, fastest first. wazero is fastest at 0.96 ns, then wasmtime at 0.96 ns; dewasm-bash is slowest at 573 µs, a span of 600000x. The table below carries every number.">
<title>wat/f64_alu: seconds per iteration for 28 runners on a log scale, fastest first. wazero is fastest at 0.96 ns, then wasmtime at 0.96 ns; dewasm-bash is slowest at 573 µs, a span of 600000x. The table below carries every number.</title>
<rect width="820" height="776" fill="#fcfcfb"/>
<line x1="168.0" y1="68.0" x2="168.0" y2="746.0" stroke="#52514e" stroke-width="1" stroke-opacity="0.25"/>
<text x="168.0" y="762.0" text-anchor="middle" font-size="11" fill="#52514e">0 ns</text>
<line x1="249.4" y1="68.0" x2="249.4" y2="746.0" stroke="#52514e" stroke-width="1" stroke-opacity="0.25"/>
<text x="249.4" y="762.0" text-anchor="middle" font-size="11" fill="#52514e">1 ns</text>
<line x1="330.8" y1="68.0" x2="330.8" y2="746.0" stroke="#52514e" stroke-width="1" stroke-opacity="0.25"/>
<text x="330.8" y="762.0" text-anchor="middle" font-size="11" fill="#52514e">10 ns</text>
<line x1="412.1" y1="68.0" x2="412.1" y2="746.0" stroke="#52514e" stroke-width="1" stroke-opacity="0.25"/>
<text x="412.1" y="762.0" text-anchor="middle" font-size="11" fill="#52514e">100 ns</text>
<line x1="493.5" y1="68.0" x2="493.5" y2="746.0" stroke="#52514e" stroke-width="1" stroke-opacity="0.25"/>
<text x="493.5" y="762.0" text-anchor="middle" font-size="11" fill="#52514e">1 µs</text>
<line x1="574.9" y1="68.0" x2="574.9" y2="746.0" stroke="#52514e" stroke-width="1" stroke-opacity="0.25"/>
<text x="574.9" y="762.0" text-anchor="middle" font-size="11" fill="#52514e">10 µs</text>
<line x1="656.3" y1="68.0" x2="656.3" y2="746.0" stroke="#52514e" stroke-width="1" stroke-opacity="0.25"/>
<text x="656.3" y="762.0" text-anchor="middle" font-size="11" fill="#52514e">100 µs</text>
<line x1="168.0" y1="746.0" x2="726.0" y2="746.0" stroke="#52514e" stroke-width="1" stroke-opacity="0.4"/>
<text x="152.0" y="90.0" text-anchor="end" font-size="12" fill="#0b0b0b">wazero</text>
<line x1="168.0" y1="86.0" x2="247.8" y2="86.0" stroke="#eda100" stroke-width="2" stroke-opacity="0.45"/>
<circle cx="247.8" cy="86.0" r="5.5" fill="#eda100" stroke="#fcfcfb" stroke-width="2"/>
<text x="806.0" y="90.0" text-anchor="end" font-size="12" font-weight="600" fill="#0b0b0b">0.96 ns</text>
<text x="152.0" y="114.0" text-anchor="end" font-size="12" fill="#0b0b0b">wasmtime</text>
<line x1="168.0" y1="110.0" x2="248.1" y2="110.0" stroke="#2a78d6" stroke-width="2" stroke-opacity="0.45"/>
<circle cx="248.1" cy="110.0" r="5.5" fill="#2a78d6" stroke="#fcfcfb" stroke-width="2"/>
<text x="806.0" y="114.0" text-anchor="end" font-size="12" font-weight="600" fill="#0b0b0b">0.96 ns</text>
<text x="152.0" y="138.0" text-anchor="end" font-size="12" fill="#0b0b0b">wasmer</text>
<line x1="168.0" y1="134.0" x2="248.2" y2="134.0" stroke="#eda100" stroke-width="2" stroke-opacity="0.45"/>
<circle cx="248.2" cy="134.0" r="5.5" fill="#eda100" stroke="#fcfcfb" stroke-width="2"/>
<text x="806.0" y="138.0" text-anchor="end" font-size="12" font-weight="600" fill="#0b0b0b">0.97 ns</text>
<text x="152.0" y="162.0" text-anchor="end" font-size="12" fill="#0b0b0b">dewasm-tinygo</text>
<line x1="168.0" y1="158.0" x2="248.2" y2="158.0" stroke="#008300" stroke-width="2" stroke-opacity="0.45"/>
<circle cx="248.2" cy="158.0" r="5.5" fill="#008300" stroke="#fcfcfb" stroke-width="2"/>
<text x="806.0" y="162.0" text-anchor="end" font-size="12" font-weight="600" fill="#0b0b0b">0.97 ns</text>
<text x="152.0" y="186.0" text-anchor="end" font-size="12" fill="#0b0b0b">dewasm-java</text>
<line x1="168.0" y1="182.0" x2="266.3" y2="182.0" stroke="#008300" stroke-width="2" stroke-opacity="0.45"/>
<circle cx="266.3" cy="182.0" r="5.5" fill="#008300" stroke="#fcfcfb" stroke-width="2"/>
<text x="806.0" y="186.0" text-anchor="end" font-size="12" font-weight="600" fill="#0b0b0b">1.61 ns</text>
<text x="152.0" y="210.0" text-anchor="end" font-size="12" fill="#0b0b0b">dewasm-pypy</text>
<line x1="168.0" y1="206.0" x2="276.6" y2="206.0" stroke="#008300" stroke-width="2" stroke-opacity="0.45"/>
<circle cx="276.6" cy="206.0" r="5.5" fill="#008300" stroke="#fcfcfb" stroke-width="2"/>
<text x="806.0" y="210.0" text-anchor="end" font-size="12" font-weight="600" fill="#0b0b0b">2.16 ns</text>
<text x="152.0" y="234.0" text-anchor="end" font-size="12" fill="#0b0b0b">dewasm-go</text>
<line x1="168.0" y1="230.0" x2="293.3" y2="230.0" stroke="#008300" stroke-width="2" stroke-opacity="0.45"/>
<circle cx="293.3" cy="230.0" r="5.5" fill="#008300" stroke="#fcfcfb" stroke-width="2"/>
<text x="806.0" y="234.0" text-anchor="end" font-size="12" font-weight="600" fill="#0b0b0b">3.46 ns</text>
<text x="152.0" y="258.0" text-anchor="end" font-size="12" fill="#0b0b0b">wasm3</text>
<line x1="168.0" y1="254.0" x2="302.6" y2="254.0" stroke="#eda100" stroke-width="2" stroke-opacity="0.45"/>
<circle cx="302.6" cy="254.0" r="5.5" fill="#eda100" stroke="#fcfcfb" stroke-width="2"/>
<text x="806.0" y="258.0" text-anchor="end" font-size="12" font-weight="600" fill="#0b0b0b">4.51 ns</text>
<text x="152.0" y="282.0" text-anchor="end" font-size="12" fill="#0b0b0b">dewasm-codon</text>
<line x1="168.0" y1="278.0" x2="304.3" y2="278.0" stroke="#008300" stroke-width="2" stroke-opacity="0.45"/>
<circle cx="304.3" cy="278.0" r="5.5" fill="#008300" stroke="#fcfcfb" stroke-width="2"/>
<text x="806.0" y="282.0" text-anchor="end" font-size="12" font-weight="600" fill="#0b0b0b">4.73 ns</text>
<text x="152.0" y="306.0" text-anchor="end" font-size="12" fill="#0b0b0b">dewasm-monoruby</text>
<line x1="168.0" y1="302.0" x2="340.6" y2="302.0" stroke="#008300" stroke-width="2" stroke-opacity="0.45"/>
<circle cx="340.6" cy="302.0" r="5.5" fill="#008300" stroke="#fcfcfb" stroke-width="2"/>
<text x="806.0" y="306.0" text-anchor="end" font-size="12" font-weight="600" fill="#0b0b0b">13.2 ns</text>
<text x="152.0" y="330.0" text-anchor="end" font-size="12" fill="#0b0b0b">dewasm-jruby</text>
<line x1="168.0" y1="326.0" x2="401.1" y2="326.0" stroke="#008300" stroke-width="2" stroke-opacity="0.45"/>
<circle cx="401.1" cy="326.0" r="5.5" fill="#008300" stroke="#fcfcfb" stroke-width="2"/>
<text x="806.0" y="330.0" text-anchor="end" font-size="12" font-weight="600" fill="#0b0b0b">73.1 ns</text>
<text x="152.0" y="354.0" text-anchor="end" font-size="12" fill="#0b0b0b">dewasm-ruby-yjit</text>
<line x1="168.0" y1="350.0" x2="402.5" y2="350.0" stroke="#008300" stroke-width="2" stroke-opacity="0.45"/>
<circle cx="402.5" cy="350.0" r="5.5" fill="#008300" stroke="#fcfcfb" stroke-width="2"/>
<text x="806.0" y="354.0" text-anchor="end" font-size="12" font-weight="600" fill="#0b0b0b">76.2 ns</text>
<text x="152.0" y="378.0" text-anchor="end" font-size="12" fill="#0b0b0b">wasmedge</text>
<line x1="168.0" y1="374.0" x2="403.6" y2="374.0" stroke="#eda100" stroke-width="2" stroke-opacity="0.45"/>
<circle cx="403.6" cy="374.0" r="5.5" fill="#eda100" stroke="#fcfcfb" stroke-width="2"/>
<text x="806.0" y="378.0" text-anchor="end" font-size="12" font-weight="600" fill="#0b0b0b">78.6 ns</text>
<text x="152.0" y="402.0" text-anchor="end" font-size="12" fill="#0b0b0b">dewasm-ruby-zjit</text>
<line x1="168.0" y1="398.0" x2="405.8" y2="398.0" stroke="#008300" stroke-width="2" stroke-opacity="0.45"/>
<circle cx="405.8" cy="398.0" r="5.5" fill="#008300" stroke="#fcfcfb" stroke-width="2"/>
<text x="806.0" y="402.0" text-anchor="end" font-size="12" font-weight="600" fill="#0b0b0b">83.7 ns</text>
<text x="152.0" y="426.0" text-anchor="end" font-size="12" fill="#0b0b0b">dewasm-ruby</text>
<line x1="168.0" y1="422.0" x2="417.7" y2="422.0" stroke="#008300" stroke-width="2" stroke-opacity="0.45"/>
<circle cx="417.7" cy="422.0" r="5.5" fill="#008300" stroke="#fcfcfb" stroke-width="2"/>
<text x="806.0" y="426.0" text-anchor="end" font-size="12" font-weight="600" fill="#0b0b0b">117 ns</text>
<text x="152.0" y="450.0" text-anchor="end" font-size="12" fill="#0b0b0b">dewasm-python-jit</text>
<line x1="168.0" y1="446.0" x2="423.7" y2="446.0" stroke="#008300" stroke-width="2" stroke-opacity="0.45"/>
<circle cx="423.7" cy="446.0" r="5.5" fill="#008300" stroke="#fcfcfb" stroke-width="2"/>
<text x="806.0" y="450.0" text-anchor="end" font-size="12" font-weight="600" fill="#0b0b0b">139 ns</text>
<text x="152.0" y="474.0" text-anchor="end" font-size="12" fill="#0b0b0b">dewasm-python</text>
<line x1="168.0" y1="470.0" x2="426.8" y2="470.0" stroke="#008300" stroke-width="2" stroke-opacity="0.45"/>
<circle cx="426.8" cy="470.0" r="5.5" fill="#008300" stroke="#fcfcfb" stroke-width="2"/>
<text x="806.0" y="474.0" text-anchor="end" font-size="12" font-weight="600" fill="#0b0b0b">151 ns</text>
<text x="152.0" y="498.0" text-anchor="end" font-size="12" fill="#0b0b0b">dewasm-graalpy</text>
<line x1="168.0" y1="494.0" x2="452.0" y2="494.0" stroke="#008300" stroke-width="2" stroke-opacity="0.45"/>
<circle cx="452.0" cy="494.0" r="5.5" fill="#008300" stroke="#fcfcfb" stroke-width="2"/>
<text x="806.0" y="498.0" text-anchor="end" font-size="12" font-weight="600" fill="#0b0b0b">309 ns</text>
<text x="152.0" y="522.0" text-anchor="end" font-size="12" fill="#0b0b0b">dewasm-perl</text>
<line x1="168.0" y1="518.0" x2="474.0" y2="518.0" stroke="#008300" stroke-width="2" stroke-opacity="0.45"/>
<circle cx="474.0" cy="518.0" r="5.5" fill="#008300" stroke="#fcfcfb" stroke-width="2"/>
<text x="806.0" y="522.0" text-anchor="end" font-size="12" font-weight="600" fill="#0b0b0b">575 ns</text>
<text x="152.0" y="546.0" text-anchor="end" font-size="12" fill="#0b0b0b">wasm3-ruby-yjit</text>
<line x1="168.0" y1="542.0" x2="515.8" y2="542.0" stroke="#e87ba4" stroke-width="2" stroke-opacity="0.45"/>
<circle cx="515.8" cy="542.0" r="5.5" fill="#e87ba4" stroke="#fcfcfb" stroke-width="2"/>
<text x="806.0" y="546.0" text-anchor="end" font-size="12" font-weight="600" fill="#0b0b0b">1.88 µs</text>
<text x="152.0" y="570.0" text-anchor="end" font-size="12" fill="#0b0b0b">wasm3-pypy</text>
<line x1="168.0" y1="566.0" x2="517.3" y2="566.0" stroke="#e87ba4" stroke-width="2" stroke-opacity="0.45"/>
<circle cx="517.3" cy="566.0" r="5.5" fill="#e87ba4" stroke="#fcfcfb" stroke-width="2"/>
<text x="806.0" y="570.0" text-anchor="end" font-size="12" font-weight="600" fill="#0b0b0b">1.96 µs</text>
<text x="152.0" y="594.0" text-anchor="end" font-size="12" fill="#0b0b0b">wardite-yjit</text>
<line x1="168.0" y1="590.0" x2="539.1" y2="590.0" stroke="#e87ba4" stroke-width="2" stroke-opacity="0.45"/>
<circle cx="539.1" cy="590.0" r="5.5" fill="#e87ba4" stroke="#fcfcfb" stroke-width="2"/>
<text x="806.0" y="594.0" text-anchor="end" font-size="12" font-weight="600" fill="#0b0b0b">3.63 µs</text>
<text x="152.0" y="618.0" text-anchor="end" font-size="12" fill="#0b0b0b">pywasm-pypy</text>
<line x1="168.0" y1="614.0" x2="554.8" y2="614.0" stroke="#e87ba4" stroke-width="2" stroke-opacity="0.45"/>
<circle cx="554.8" cy="614.0" r="5.5" fill="#e87ba4" stroke="#fcfcfb" stroke-width="2"/>
<text x="806.0" y="618.0" text-anchor="end" font-size="12" font-weight="600" fill="#0b0b0b">5.67 µs</text>
<text x="152.0" y="642.0" text-anchor="end" font-size="12" fill="#0b0b0b">wasm3-ruby</text>
<line x1="168.0" y1="638.0" x2="556.5" y2="638.0" stroke="#e87ba4" stroke-width="2" stroke-opacity="0.45"/>
<circle cx="556.5" cy="638.0" r="5.5" fill="#e87ba4" stroke="#fcfcfb" stroke-width="2"/>
<text x="806.0" y="642.0" text-anchor="end" font-size="12" font-weight="600" fill="#0b0b0b">5.94 µs</text>
<text x="152.0" y="666.0" text-anchor="end" font-size="12" fill="#0b0b0b">wardite</text>
<line x1="168.0" y1="662.0" x2="565.8" y2="662.0" stroke="#e87ba4" stroke-width="2" stroke-opacity="0.45"/>
<circle cx="565.8" cy="662.0" r="5.5" fill="#e87ba4" stroke="#fcfcfb" stroke-width="2"/>
<text x="806.0" y="666.0" text-anchor="end" font-size="12" font-weight="600" fill="#0b0b0b">7.73 µs</text>
<text x="152.0" y="690.0" text-anchor="end" font-size="12" fill="#0b0b0b">wasm3-python</text>
<line x1="168.0" y1="686.0" x2="584.9" y2="686.0" stroke="#e87ba4" stroke-width="2" stroke-opacity="0.45"/>
<circle cx="584.9" cy="686.0" r="5.5" fill="#e87ba4" stroke="#fcfcfb" stroke-width="2"/>
<text x="806.0" y="690.0" text-anchor="end" font-size="12" font-weight="600" fill="#0b0b0b">13.3 µs</text>
<text x="152.0" y="714.0" text-anchor="end" font-size="12" fill="#0b0b0b">pywasm-cpython</text>
<line x1="168.0" y1="710.0" x2="612.7" y2="710.0" stroke="#e87ba4" stroke-width="2" stroke-opacity="0.45"/>
<circle cx="612.7" cy="710.0" r="5.5" fill="#e87ba4" stroke="#fcfcfb" stroke-width="2"/>
<text x="806.0" y="714.0" text-anchor="end" font-size="12" font-weight="600" fill="#0b0b0b">29.1 µs</text>
<text x="152.0" y="738.0" text-anchor="end" font-size="12" fill="#0b0b0b">dewasm-bash</text>
<line x1="168.0" y1="734.0" x2="718.0" y2="734.0" stroke="#008300" stroke-width="2" stroke-opacity="0.45"/>
<circle cx="718.0" cy="734.0" r="5.5" fill="#008300" stroke="#fcfcfb" stroke-width="2"/>
<text x="806.0" y="738.0" text-anchor="end" font-size="12" font-weight="600" fill="#0b0b0b">573 µs</text>
<text x="14.0" y="24" font-size="15" font-weight="600" fill="#0b0b0b">wat/f64_alu: seconds per iteration, median of the timed runs (log scale)</text>
<circle cx="19.5" cy="48.0" r="5.5" fill="#2a78d6" stroke="#fcfcfb" stroke-width="2"/>
<text x="31.0" y="52.0" font-size="12" fill="#52514e">wasmtime (baseline)</text>
<circle cx="179.9" cy="48.0" r="5.5" fill="#008300" stroke="#fcfcfb" stroke-width="2"/>
<text x="191.4" y="52.0" font-size="12" fill="#52514e">dewasm backends</text>
<circle cx="313.9" cy="48.0" r="5.5" fill="#eda100" stroke="#fcfcfb" stroke-width="2"/>
<text x="325.4" y="52.0" font-size="12" fill="#52514e">native runtimes</text>
<circle cx="447.9" cy="48.0" r="5.5" fill="#e87ba4" stroke="#fcfcfb" stroke-width="2"/>
<text x="459.4" y="52.0" font-size="12" fill="#52514e">wasm interpreters in a host language</text>
</svg>
