<svg xmlns="http://www.w3.org/2000/svg" width="820" height="776" viewBox="0 0 820 776" font-family="system-ui, -apple-system, Segoe UI, sans-serif" role="img" aria-label="wat/i64_alu: seconds per iteration for 28 runners on a log scale, fastest first. dewasm-codon is fastest at 2.36 ns, then wasmtime at 2.39 ns; pywasm-pypy is slowest at 353 µs, a span of 149000x. The table below carries every number.">
<title>wat/i64_alu: seconds per iteration for 28 runners on a log scale, fastest first. dewasm-codon is fastest at 2.36 ns, then wasmtime at 2.39 ns; pywasm-pypy is slowest at 353 µs, a span of 149000x. The table below carries every number.</title>
<rect width="820" height="776" fill="#1a1a19"/>
<line x1="168.0" y1="68.0" x2="168.0" y2="746.0" stroke="#c3c2b7" stroke-width="1" stroke-opacity="0.25"/>
<text x="168.0" y="762.0" text-anchor="middle" font-size="11" fill="#c3c2b7">1 ns</text>
<line x1="267.1" y1="68.0" x2="267.1" y2="746.0" stroke="#c3c2b7" stroke-width="1" stroke-opacity="0.25"/>
<text x="267.1" y="762.0" text-anchor="middle" font-size="11" fill="#c3c2b7">10 ns</text>
<line x1="366.3" y1="68.0" x2="366.3" y2="746.0" stroke="#c3c2b7" stroke-width="1" stroke-opacity="0.25"/>
<text x="366.3" y="762.0" text-anchor="middle" font-size="11" fill="#c3c2b7">100 ns</text>
<line x1="465.4" y1="68.0" x2="465.4" y2="746.0" stroke="#c3c2b7" stroke-width="1" stroke-opacity="0.25"/>
<text x="465.4" y="762.0" text-anchor="middle" font-size="11" fill="#c3c2b7">1 µs</text>
<line x1="564.6" y1="68.0" x2="564.6" y2="746.0" stroke="#c3c2b7" stroke-width="1" stroke-opacity="0.25"/>
<text x="564.6" y="762.0" text-anchor="middle" font-size="11" fill="#c3c2b7">10 µs</text>
<line x1="663.7" y1="68.0" x2="663.7" y2="746.0" stroke="#c3c2b7" stroke-width="1" stroke-opacity="0.25"/>
<text x="663.7" y="762.0" text-anchor="middle" font-size="11" fill="#c3c2b7">100 µs</text>
<line x1="168.0" y1="746.0" x2="726.0" y2="746.0" stroke="#c3c2b7" stroke-width="1" stroke-opacity="0.4"/>
<text x="152.0" y="90.0" text-anchor="end" font-size="12" fill="#ffffff">dewasm-codon</text>
<line x1="168.0" y1="86.0" x2="205.0" y2="86.0" stroke="#008300" stroke-width="2" stroke-opacity="0.45"/>
<circle cx="205.0" cy="86.0" r="5.5" fill="#008300" stroke="#1a1a19" stroke-width="2"/>
<text x="806.0" y="90.0" text-anchor="end" font-size="12" font-weight="600" fill="#ffffff">2.36 ns</text>
<text x="152.0" y="114.0" text-anchor="end" font-size="12" fill="#ffffff">wasmtime</text>
<line x1="168.0" y1="110.0" x2="205.5" y2="110.0" stroke="#3987e5" stroke-width="2" stroke-opacity="0.45"/>
<circle cx="205.5" cy="110.0" r="5.5" fill="#3987e5" stroke="#1a1a19" stroke-width="2"/>
<text x="806.0" y="114.0" text-anchor="end" font-size="12" font-weight="600" fill="#ffffff">2.39 ns</text>
<text x="152.0" y="138.0" text-anchor="end" font-size="12" fill="#ffffff">wasmer</text>
<line x1="168.0" y1="134.0" x2="205.6" y2="134.0" stroke="#c98500" stroke-width="2" stroke-opacity="0.45"/>
<circle cx="205.6" cy="134.0" r="5.5" fill="#c98500" stroke="#1a1a19" stroke-width="2"/>
<text x="806.0" y="138.0" text-anchor="end" font-size="12" font-weight="600" fill="#ffffff">2.40 ns</text>
<text x="152.0" y="162.0" text-anchor="end" font-size="12" fill="#ffffff">dewasm-tinygo</text>
<line x1="168.0" y1="158.0" x2="205.8" y2="158.0" stroke="#008300" stroke-width="2" stroke-opacity="0.45"/>
<circle cx="205.8" cy="158.0" r="5.5" fill="#008300" stroke="#1a1a19" stroke-width="2"/>
<text x="806.0" y="162.0" text-anchor="end" font-size="12" font-weight="600" fill="#ffffff">2.41 ns</text>
<text x="152.0" y="186.0" text-anchor="end" font-size="12" fill="#ffffff">dewasm-java</text>
<line x1="168.0" y1="182.0" x2="206.9" y2="182.0" stroke="#008300" stroke-width="2" stroke-opacity="0.45"/>
<circle cx="206.9" cy="182.0" r="5.5" fill="#008300" stroke="#1a1a19" stroke-width="2"/>
<text x="806.0" y="186.0" text-anchor="end" font-size="12" font-weight="600" fill="#ffffff">2.47 ns</text>
<text x="152.0" y="210.0" text-anchor="end" font-size="12" fill="#ffffff">dewasm-go</text>
<line x1="168.0" y1="206.0" x2="210.9" y2="206.0" stroke="#008300" stroke-width="2" stroke-opacity="0.45"/>
<circle cx="210.9" cy="206.0" r="5.5" fill="#008300" stroke="#1a1a19" stroke-width="2"/>
<text x="806.0" y="210.0" text-anchor="end" font-size="12" font-weight="600" fill="#ffffff">2.71 ns</text>
<text x="152.0" y="234.0" text-anchor="end" font-size="12" fill="#ffffff">wazero</text>
<line x1="168.0" y1="230.0" x2="211.4" y2="230.0" stroke="#c98500" stroke-width="2" stroke-opacity="0.45"/>
<circle cx="211.4" cy="230.0" r="5.5" fill="#c98500" stroke="#1a1a19" stroke-width="2"/>
<text x="806.0" y="234.0" text-anchor="end" font-size="12" font-weight="600" fill="#ffffff">2.74 ns</text>
<text x="152.0" y="258.0" text-anchor="end" font-size="12" fill="#ffffff">wasm3</text>
<line x1="168.0" y1="254.0" x2="259.1" y2="254.0" stroke="#c98500" stroke-width="2" stroke-opacity="0.45"/>
<circle cx="259.1" cy="254.0" r="5.5" fill="#c98500" stroke="#1a1a19" stroke-width="2"/>
<text x="806.0" y="258.0" text-anchor="end" font-size="12" font-weight="600" fill="#ffffff">8.29 ns</text>
<text x="152.0" y="282.0" text-anchor="end" font-size="12" fill="#ffffff">wasmedge</text>
<line x1="168.0" y1="278.0" x2="384.9" y2="278.0" stroke="#c98500" stroke-width="2" stroke-opacity="0.45"/>
<circle cx="384.9" cy="278.0" r="5.5" fill="#c98500" stroke="#1a1a19" stroke-width="2"/>
<text x="806.0" y="282.0" text-anchor="end" font-size="12" font-weight="600" fill="#ffffff">154 ns</text>
<text x="152.0" y="306.0" text-anchor="end" font-size="12" fill="#ffffff">dewasm-pypy</text>
<line x1="168.0" y1="302.0" x2="401.9" y2="302.0" stroke="#008300" stroke-width="2" stroke-opacity="0.45"/>
<circle cx="401.9" cy="302.0" r="5.5" fill="#008300" stroke="#1a1a19" stroke-width="2"/>
<text x="806.0" y="306.0" text-anchor="end" font-size="12" font-weight="600" fill="#ffffff">228 ns</text>
<text x="152.0" y="330.0" text-anchor="end" font-size="12" fill="#ffffff">dewasm-python</text>
<line x1="168.0" y1="326.0" x2="447.2" y2="326.0" stroke="#008300" stroke-width="2" stroke-opacity="0.45"/>
<circle cx="447.2" cy="326.0" r="5.5" fill="#008300" stroke="#1a1a19" stroke-width="2"/>
<text x="806.0" y="330.0" text-anchor="end" font-size="12" font-weight="600" fill="#ffffff">654 ns</text>
<text x="152.0" y="354.0" text-anchor="end" font-size="12" fill="#ffffff">dewasm-python-jit</text>
<line x1="168.0" y1="350.0" x2="450.4" y2="350.0" stroke="#008300" stroke-width="2" stroke-opacity="0.45"/>
<circle cx="450.4" cy="350.0" r="5.5" fill="#008300" stroke="#1a1a19" stroke-width="2"/>
<text x="806.0" y="354.0" text-anchor="end" font-size="12" font-weight="600" fill="#ffffff">706 ns</text>
<text x="152.0" y="378.0" text-anchor="end" font-size="12" fill="#ffffff">dewasm-monoruby</text>
<line x1="168.0" y1="374.0" x2="457.2" y2="374.0" stroke="#008300" stroke-width="2" stroke-opacity="0.45"/>
<circle cx="457.2" cy="374.0" r="5.5" fill="#008300" stroke="#1a1a19" stroke-width="2"/>
<text x="806.0" y="378.0" text-anchor="end" font-size="12" font-weight="600" fill="#ffffff">826 ns</text>
<text x="152.0" y="402.0" text-anchor="end" font-size="12" fill="#ffffff">dewasm-perl</text>
<line x1="168.0" y1="398.0" x2="466.7" y2="398.0" stroke="#008300" stroke-width="2" stroke-opacity="0.45"/>
<circle cx="466.7" cy="398.0" r="5.5" fill="#008300" stroke="#1a1a19" stroke-width="2"/>
<text x="806.0" y="402.0" text-anchor="end" font-size="12" font-weight="600" fill="#ffffff">1.03 µs</text>
<text x="152.0" y="426.0" text-anchor="end" font-size="12" fill="#ffffff">dewasm-ruby-yjit</text>
<line x1="168.0" y1="422.0" x2="468.3" y2="422.0" stroke="#008300" stroke-width="2" stroke-opacity="0.45"/>
<circle cx="468.3" cy="422.0" r="5.5" fill="#008300" stroke="#1a1a19" stroke-width="2"/>
<text x="806.0" y="426.0" text-anchor="end" font-size="12" font-weight="600" fill="#ffffff">1.07 µs</text>
<text x="152.0" y="450.0" text-anchor="end" font-size="12" fill="#ffffff">dewasm-ruby-zjit</text>
<line x1="168.0" y1="446.0" x2="471.8" y2="446.0" stroke="#008300" stroke-width="2" stroke-opacity="0.45"/>
<circle cx="471.8" cy="446.0" r="5.5" fill="#008300" stroke="#1a1a19" stroke-width="2"/>
<text x="806.0" y="450.0" text-anchor="end" font-size="12" font-weight="600" fill="#ffffff">1.16 µs</text>
<text x="152.0" y="474.0" text-anchor="end" font-size="12" fill="#ffffff">dewasm-ruby</text>
<line x1="168.0" y1="470.0" x2="479.5" y2="470.0" stroke="#008300" stroke-width="2" stroke-opacity="0.45"/>
<circle cx="479.5" cy="470.0" r="5.5" fill="#008300" stroke="#1a1a19" stroke-width="2"/>
<text x="806.0" y="474.0" text-anchor="end" font-size="12" font-weight="600" fill="#ffffff">1.39 µs</text>
<text x="152.0" y="498.0" text-anchor="end" font-size="12" fill="#ffffff">dewasm-graalpy</text>
<line x1="168.0" y1="494.0" x2="513.5" y2="494.0" stroke="#008300" stroke-width="2" stroke-opacity="0.45"/>
<circle cx="513.5" cy="494.0" r="5.5" fill="#008300" stroke="#1a1a19" stroke-width="2"/>
<text x="806.0" y="498.0" text-anchor="end" font-size="12" font-weight="600" fill="#ffffff">3.06 µs</text>
<text x="152.0" y="522.0" text-anchor="end" font-size="12" fill="#ffffff">dewasm-jruby</text>
<line x1="168.0" y1="518.0" x2="514.4" y2="518.0" stroke="#008300" stroke-width="2" stroke-opacity="0.45"/>
<circle cx="514.4" cy="518.0" r="5.5" fill="#008300" stroke="#1a1a19" stroke-width="2"/>
<text x="806.0" y="522.0" text-anchor="end" font-size="12" font-weight="600" fill="#ffffff">3.12 µs</text>
<text x="152.0" y="546.0" text-anchor="end" font-size="12" fill="#ffffff">wasm3-ruby-yjit</text>
<line x1="168.0" y1="542.0" x2="541.2" y2="542.0" stroke="#d55181" stroke-width="2" stroke-opacity="0.45"/>
<circle cx="541.2" cy="542.0" r="5.5" fill="#d55181" stroke="#1a1a19" stroke-width="2"/>
<text x="806.0" y="546.0" text-anchor="end" font-size="12" font-weight="600" fill="#ffffff">5.81 µs</text>
<text x="152.0" y="570.0" text-anchor="end" font-size="12" fill="#ffffff">wardite-yjit</text>
<line x1="168.0" y1="566.0" x2="564.8" y2="566.0" stroke="#d55181" stroke-width="2" stroke-opacity="0.45"/>
<circle cx="564.8" cy="566.0" r="5.5" fill="#d55181" stroke="#1a1a19" stroke-width="2"/>
<text x="806.0" y="570.0" text-anchor="end" font-size="12" font-weight="600" fill="#ffffff">10.1 µs</text>
<text x="152.0" y="594.0" text-anchor="end" font-size="12" fill="#ffffff">wasm3-pypy</text>
<line x1="168.0" y1="590.0" x2="576.9" y2="590.0" stroke="#d55181" stroke-width="2" stroke-opacity="0.45"/>
<circle cx="576.9" cy="590.0" r="5.5" fill="#d55181" stroke="#1a1a19" stroke-width="2"/>
<text x="806.0" y="594.0" text-anchor="end" font-size="12" font-weight="600" fill="#ffffff">13.3 µs</text>
<text x="152.0" y="618.0" text-anchor="end" font-size="12" fill="#ffffff">wasm3-ruby</text>
<line x1="168.0" y1="614.0" x2="579.0" y2="614.0" stroke="#d55181" stroke-width="2" stroke-opacity="0.45"/>
<circle cx="579.0" cy="614.0" r="5.5" fill="#d55181" stroke="#1a1a19" stroke-width="2"/>
<text x="806.0" y="618.0" text-anchor="end" font-size="12" font-weight="600" fill="#ffffff">14.0 µs</text>
<text x="152.0" y="642.0" text-anchor="end" font-size="12" fill="#ffffff">wardite</text>
<line x1="168.0" y1="638.0" x2="588.2" y2="638.0" stroke="#d55181" stroke-width="2" stroke-opacity="0.45"/>
<circle cx="588.2" cy="638.0" r="5.5" fill="#d55181" stroke="#1a1a19" stroke-width="2"/>
<text x="806.0" y="642.0" text-anchor="end" font-size="12" font-weight="600" fill="#ffffff">17.3 µs</text>
<text x="152.0" y="666.0" text-anchor="end" font-size="12" fill="#ffffff">wasm3-python</text>
<line x1="168.0" y1="662.0" x2="607.2" y2="662.0" stroke="#d55181" stroke-width="2" stroke-opacity="0.45"/>
<circle cx="607.2" cy="662.0" r="5.5" fill="#d55181" stroke="#1a1a19" stroke-width="2"/>
<text x="806.0" y="666.0" text-anchor="end" font-size="12" font-weight="600" fill="#ffffff">26.9 µs</text>
<text x="152.0" y="690.0" text-anchor="end" font-size="12" fill="#ffffff">dewasm-bash</text>
<line x1="168.0" y1="686.0" x2="609.2" y2="686.0" stroke="#008300" stroke-width="2" stroke-opacity="0.45"/>
<circle cx="609.2" cy="686.0" r="5.5" fill="#008300" stroke="#1a1a19" stroke-width="2"/>
<text x="806.0" y="690.0" text-anchor="end" font-size="12" font-weight="600" fill="#ffffff">28.2 µs</text>
<text x="152.0" y="714.0" text-anchor="end" font-size="12" fill="#ffffff">pywasm-cpython</text>
<line x1="168.0" y1="710.0" x2="644.2" y2="710.0" stroke="#d55181" stroke-width="2" stroke-opacity="0.45"/>
<circle cx="644.2" cy="710.0" r="5.5" fill="#d55181" stroke="#1a1a19" stroke-width="2"/>
<text x="806.0" y="714.0" text-anchor="end" font-size="12" font-weight="600" fill="#ffffff">63.5 µs</text>
<text x="152.0" y="738.0" text-anchor="end" font-size="12" fill="#ffffff">pywasm-pypy</text>
<line x1="168.0" y1="734.0" x2="718.0" y2="734.0" stroke="#d55181" stroke-width="2" stroke-opacity="0.45"/>
<circle cx="718.0" cy="734.0" r="5.5" fill="#d55181" stroke="#1a1a19" stroke-width="2"/>
<text x="806.0" y="738.0" text-anchor="end" font-size="12" font-weight="600" fill="#ffffff">353 µs</text>
<text x="14.0" y="24" font-size="15" font-weight="600" fill="#ffffff">wat/i64_alu: seconds per iteration, median of the timed runs (log scale)</text>
<circle cx="19.5" cy="48.0" r="5.5" fill="#3987e5" stroke="#1a1a19" stroke-width="2"/>
<text x="31.0" y="52.0" font-size="12" fill="#c3c2b7">wasmtime (baseline)</text>
<circle cx="179.9" cy="48.0" r="5.5" fill="#008300" stroke="#1a1a19" stroke-width="2"/>
<text x="191.4" y="52.0" font-size="12" fill="#c3c2b7">dewasm backends</text>
<circle cx="313.9" cy="48.0" r="5.5" fill="#c98500" stroke="#1a1a19" stroke-width="2"/>
<text x="325.4" y="52.0" font-size="12" fill="#c3c2b7">native runtimes</text>
<circle cx="447.9" cy="48.0" r="5.5" fill="#d55181" stroke="#1a1a19" stroke-width="2"/>
<text x="459.4" y="52.0" font-size="12" fill="#c3c2b7">wasm interpreters in a host language</text>
</svg>
