<svg xmlns="http://www.w3.org/2000/svg" width="820" height="656" viewBox="0 0 820 656" font-family="system-ui, -apple-system, Segoe UI, sans-serif" role="img" aria-label="wat/tail_call: seconds per iteration for 23 runners on a log scale, fastest first. wasmtime is fastest at 3.44 ns, then dewasm-go at 9.51 ns; dewasm-bash is slowest at 70.5 µs, a span of 20500x. The table below carries every number.">
<title>wat/tail_call: seconds per iteration for 23 runners on a log scale, fastest first. wasmtime is fastest at 3.44 ns, then dewasm-go at 9.51 ns; dewasm-bash is slowest at 70.5 µs, a span of 20500x. The table below carries every number.</title>
<rect width="820" height="656" fill="#1a1a19"/>
<line x1="168.0" y1="68.0" x2="168.0" y2="626.0" stroke="#c3c2b7" stroke-width="1" stroke-opacity="0.25"/>
<text x="168.0" y="642.0" text-anchor="middle" font-size="11" fill="#c3c2b7">1 ns</text>
<line x1="281.4" y1="68.0" x2="281.4" y2="626.0" stroke="#c3c2b7" stroke-width="1" stroke-opacity="0.25"/>
<text x="281.4" y="642.0" text-anchor="middle" font-size="11" fill="#c3c2b7">10 ns</text>
<line x1="394.9" y1="68.0" x2="394.9" y2="626.0" stroke="#c3c2b7" stroke-width="1" stroke-opacity="0.25"/>
<text x="394.9" y="642.0" text-anchor="middle" font-size="11" fill="#c3c2b7">100 ns</text>
<line x1="508.3" y1="68.0" x2="508.3" y2="626.0" stroke="#c3c2b7" stroke-width="1" stroke-opacity="0.25"/>
<text x="508.3" y="642.0" text-anchor="middle" font-size="11" fill="#c3c2b7">1 µs</text>
<line x1="621.8" y1="68.0" x2="621.8" y2="626.0" stroke="#c3c2b7" stroke-width="1" stroke-opacity="0.25"/>
<text x="621.8" y="642.0" text-anchor="middle" font-size="11" fill="#c3c2b7">10 µs</text>
<line x1="168.0" y1="626.0" x2="726.0" y2="626.0" stroke="#c3c2b7" stroke-width="1" stroke-opacity="0.4"/>
<text x="152.0" y="90.0" text-anchor="end" font-size="12" fill="#ffffff">wasmtime</text>
<line x1="168.0" y1="86.0" x2="228.9" y2="86.0" stroke="#3987e5" stroke-width="2" stroke-opacity="0.45"/>
<circle cx="228.9" cy="86.0" r="5.5" fill="#3987e5" stroke="#1a1a19" stroke-width="2"/>
<text x="806.0" y="90.0" text-anchor="end" font-size="12" font-weight="600" fill="#ffffff">3.44 ns</text>
<text x="152.0" y="114.0" text-anchor="end" font-size="12" fill="#ffffff">dewasm-go</text>
<line x1="168.0" y1="110.0" x2="279.0" y2="110.0" stroke="#008300" stroke-width="2" stroke-opacity="0.45"/>
<circle cx="279.0" cy="110.0" r="5.5" fill="#008300" stroke="#1a1a19" stroke-width="2"/>
<text x="806.0" y="114.0" text-anchor="end" font-size="12" font-weight="600" fill="#ffffff">9.51 ns</text>
<text x="152.0" y="138.0" text-anchor="end" font-size="12" fill="#ffffff">dewasm-tinygo</text>
<line x1="168.0" y1="134.0" x2="290.9" y2="134.0" stroke="#008300" stroke-width="2" stroke-opacity="0.45"/>
<circle cx="290.9" cy="134.0" r="5.5" fill="#008300" stroke="#1a1a19" stroke-width="2"/>
<text x="806.0" y="138.0" text-anchor="end" font-size="12" font-weight="600" fill="#ffffff">12.1 ns</text>
<text x="152.0" y="162.0" text-anchor="end" font-size="12" fill="#ffffff">dewasm-java</text>
<line x1="168.0" y1="158.0" x2="312.5" y2="158.0" stroke="#008300" stroke-width="2" stroke-opacity="0.45"/>
<circle cx="312.5" cy="158.0" r="5.5" fill="#008300" stroke="#1a1a19" stroke-width="2"/>
<text x="806.0" y="162.0" text-anchor="end" font-size="12" font-weight="600" fill="#ffffff">18.8 ns</text>
<text x="152.0" y="186.0" text-anchor="end" font-size="12" fill="#ffffff">dewasm-codon</text>
<line x1="168.0" y1="182.0" x2="324.2" y2="182.0" stroke="#008300" stroke-width="2" stroke-opacity="0.45"/>
<circle cx="324.2" cy="182.0" r="5.5" fill="#008300" stroke="#1a1a19" stroke-width="2"/>
<text x="806.0" y="186.0" text-anchor="end" font-size="12" font-weight="600" fill="#ffffff">23.8 ns</text>
<text x="152.0" y="210.0" text-anchor="end" font-size="12" fill="#ffffff">wasm3</text>
<line x1="168.0" y1="206.0" x2="354.7" y2="206.0" stroke="#c98500" stroke-width="2" stroke-opacity="0.45"/>
<circle cx="354.7" cy="206.0" r="5.5" fill="#c98500" stroke="#1a1a19" stroke-width="2"/>
<text x="806.0" y="210.0" text-anchor="end" font-size="12" font-weight="600" fill="#ffffff">44.2 ns</text>
<text x="152.0" y="234.0" text-anchor="end" font-size="12" fill="#ffffff">dewasm-spinel</text>
<line x1="168.0" y1="230.0" x2="378.5" y2="230.0" stroke="#008300" stroke-width="2" stroke-opacity="0.45"/>
<circle cx="378.5" cy="230.0" r="5.5" fill="#008300" stroke="#1a1a19" stroke-width="2"/>
<text x="806.0" y="234.0" text-anchor="end" font-size="12" font-weight="600" fill="#ffffff">71.7 ns</text>
<text x="152.0" y="258.0" text-anchor="end" font-size="12" fill="#ffffff">dewasm-monoruby</text>
<line x1="168.0" y1="254.0" x2="413.7" y2="254.0" stroke="#008300" stroke-width="2" stroke-opacity="0.45"/>
<circle cx="413.7" cy="254.0" r="5.5" fill="#008300" stroke="#1a1a19" stroke-width="2"/>
<text x="806.0" y="258.0" text-anchor="end" font-size="12" font-weight="600" fill="#ffffff">147 ns</text>
<text x="152.0" y="282.0" text-anchor="end" font-size="12" fill="#ffffff">dewasm-pypy</text>
<line x1="168.0" y1="278.0" x2="414.0" y2="278.0" stroke="#008300" stroke-width="2" stroke-opacity="0.45"/>
<circle cx="414.0" cy="278.0" r="5.5" fill="#008300" stroke="#1a1a19" stroke-width="2"/>
<text x="806.0" y="282.0" text-anchor="end" font-size="12" font-weight="600" fill="#ffffff">147 ns</text>
<text x="152.0" y="306.0" text-anchor="end" font-size="12" fill="#ffffff">wasmedge</text>
<line x1="168.0" y1="302.0" x2="426.3" y2="302.0" stroke="#c98500" stroke-width="2" stroke-opacity="0.45"/>
<circle cx="426.3" cy="302.0" r="5.5" fill="#c98500" stroke="#1a1a19" stroke-width="2"/>
<text x="806.0" y="306.0" text-anchor="end" font-size="12" font-weight="600" fill="#ffffff">189 ns</text>
<text x="152.0" y="330.0" text-anchor="end" font-size="12" fill="#ffffff">dewasm-ruby-yjit</text>
<line x1="168.0" y1="326.0" x2="445.6" y2="326.0" stroke="#008300" stroke-width="2" stroke-opacity="0.45"/>
<circle cx="445.6" cy="326.0" r="5.5" fill="#008300" stroke="#1a1a19" stroke-width="2"/>
<text x="806.0" y="330.0" text-anchor="end" font-size="12" font-weight="600" fill="#ffffff">280 ns</text>
<text x="152.0" y="354.0" text-anchor="end" font-size="12" fill="#ffffff">dewasm-ruby-zjit</text>
<line x1="168.0" y1="350.0" x2="461.4" y2="350.0" stroke="#008300" stroke-width="2" stroke-opacity="0.45"/>
<circle cx="461.4" cy="350.0" r="5.5" fill="#008300" stroke="#1a1a19" stroke-width="2"/>
<text x="806.0" y="354.0" text-anchor="end" font-size="12" font-weight="600" fill="#ffffff">386 ns</text>
<text x="152.0" y="378.0" text-anchor="end" font-size="12" fill="#ffffff">dewasm-jruby</text>
<line x1="168.0" y1="374.0" x2="479.9" y2="374.0" stroke="#008300" stroke-width="2" stroke-opacity="0.45"/>
<circle cx="479.9" cy="374.0" r="5.5" fill="#008300" stroke="#1a1a19" stroke-width="2"/>
<text x="806.0" y="378.0" text-anchor="end" font-size="12" font-weight="600" fill="#ffffff">562 ns</text>
<text x="152.0" y="402.0" text-anchor="end" font-size="12" fill="#ffffff">dewasm-python-jit</text>
<line x1="168.0" y1="398.0" x2="485.2" y2="398.0" stroke="#008300" stroke-width="2" stroke-opacity="0.45"/>
<circle cx="485.2" cy="398.0" r="5.5" fill="#008300" stroke="#1a1a19" stroke-width="2"/>
<text x="806.0" y="402.0" text-anchor="end" font-size="12" font-weight="600" fill="#ffffff">626 ns</text>
<text x="152.0" y="426.0" text-anchor="end" font-size="12" fill="#ffffff">dewasm-python</text>
<line x1="168.0" y1="422.0" x2="485.6" y2="422.0" stroke="#008300" stroke-width="2" stroke-opacity="0.45"/>
<circle cx="485.6" cy="422.0" r="5.5" fill="#008300" stroke="#1a1a19" stroke-width="2"/>
<text x="806.0" y="426.0" text-anchor="end" font-size="12" font-weight="600" fill="#ffffff">631 ns</text>
<text x="152.0" y="450.0" text-anchor="end" font-size="12" fill="#ffffff">dewasm-ruby</text>
<line x1="168.0" y1="446.0" x2="485.7" y2="446.0" stroke="#008300" stroke-width="2" stroke-opacity="0.45"/>
<circle cx="485.7" cy="446.0" r="5.5" fill="#008300" stroke="#1a1a19" stroke-width="2"/>
<text x="806.0" y="450.0" text-anchor="end" font-size="12" font-weight="600" fill="#ffffff">632 ns</text>
<text x="152.0" y="474.0" text-anchor="end" font-size="12" fill="#ffffff">dewasm-graalpy</text>
<line x1="168.0" y1="470.0" x2="486.6" y2="470.0" stroke="#008300" stroke-width="2" stroke-opacity="0.45"/>
<circle cx="486.6" cy="470.0" r="5.5" fill="#008300" stroke="#1a1a19" stroke-width="2"/>
<text x="806.0" y="474.0" text-anchor="end" font-size="12" font-weight="600" fill="#ffffff">644 ns</text>
<text x="152.0" y="498.0" text-anchor="end" font-size="12" fill="#ffffff">dewasm-perl</text>
<line x1="168.0" y1="494.0" x2="552.6" y2="494.0" stroke="#008300" stroke-width="2" stroke-opacity="0.45"/>
<circle cx="552.6" cy="494.0" r="5.5" fill="#008300" stroke="#1a1a19" stroke-width="2"/>
<text x="806.0" y="498.0" text-anchor="end" font-size="12" font-weight="600" fill="#ffffff">2.46 µs</text>
<text x="152.0" y="522.0" text-anchor="end" font-size="12" fill="#ffffff">wasm3-ruby-yjit</text>
<line x1="168.0" y1="518.0" x2="611.8" y2="518.0" stroke="#d55181" stroke-width="2" stroke-opacity="0.45"/>
<circle cx="611.8" cy="518.0" r="5.5" fill="#d55181" stroke="#1a1a19" stroke-width="2"/>
<text x="806.0" y="522.0" text-anchor="end" font-size="12" font-weight="600" fill="#ffffff">8.18 µs</text>
<text x="152.0" y="546.0" text-anchor="end" font-size="12" fill="#ffffff">wasm3-pypy</text>
<line x1="168.0" y1="542.0" x2="651.8" y2="542.0" stroke="#d55181" stroke-width="2" stroke-opacity="0.45"/>
<circle cx="651.8" cy="542.0" r="5.5" fill="#d55181" stroke="#1a1a19" stroke-width="2"/>
<text x="806.0" y="546.0" text-anchor="end" font-size="12" font-weight="600" fill="#ffffff">18.4 µs</text>
<text x="152.0" y="570.0" text-anchor="end" font-size="12" fill="#ffffff">wasm3-ruby</text>
<line x1="168.0" y1="566.0" x2="655.3" y2="566.0" stroke="#d55181" stroke-width="2" stroke-opacity="0.45"/>
<circle cx="655.3" cy="566.0" r="5.5" fill="#d55181" stroke="#1a1a19" stroke-width="2"/>
<text x="806.0" y="570.0" text-anchor="end" font-size="12" font-weight="600" fill="#ffffff">19.7 µs</text>
<text x="152.0" y="594.0" text-anchor="end" font-size="12" fill="#ffffff">wasm3-python</text>
<line x1="168.0" y1="590.0" x2="693.6" y2="590.0" stroke="#d55181" stroke-width="2" stroke-opacity="0.45"/>
<circle cx="693.6" cy="590.0" r="5.5" fill="#d55181" stroke="#1a1a19" stroke-width="2"/>
<text x="806.0" y="594.0" text-anchor="end" font-size="12" font-weight="600" fill="#ffffff">43.0 µs</text>
<text x="152.0" y="618.0" text-anchor="end" font-size="12" fill="#ffffff">dewasm-bash</text>
<line x1="168.0" y1="614.0" x2="718.0" y2="614.0" stroke="#008300" stroke-width="2" stroke-opacity="0.45"/>
<circle cx="718.0" cy="614.0" r="5.5" fill="#008300" stroke="#1a1a19" stroke-width="2"/>
<text x="806.0" y="618.0" text-anchor="end" font-size="12" font-weight="600" fill="#ffffff">70.5 µs</text>
<text x="14.0" y="24" font-size="15" font-weight="600" fill="#ffffff">wat/tail_call: seconds per iteration, median of the timed runs (log scale)</text>
<circle cx="19.5" cy="48.0" r="5.5" fill="#3987e5" stroke="#1a1a19" stroke-width="2"/>
<text x="31.0" y="52.0" font-size="12" fill="#c3c2b7">wasmtime (baseline)</text>
<circle cx="179.9" cy="48.0" r="5.5" fill="#008300" stroke="#1a1a19" stroke-width="2"/>
<text x="191.4" y="52.0" font-size="12" fill="#c3c2b7">dewasm backends</text>
<circle cx="313.9" cy="48.0" r="5.5" fill="#c98500" stroke="#1a1a19" stroke-width="2"/>
<text x="325.4" y="52.0" font-size="12" fill="#c3c2b7">native runtimes</text>
<circle cx="447.9" cy="48.0" r="5.5" fill="#d55181" stroke="#1a1a19" stroke-width="2"/>
<text x="459.4" y="52.0" font-size="12" fill="#c3c2b7">wasm interpreters in a host language</text>
</svg>
