<svg xmlns="http://www.w3.org/2000/svg" width="820" height="632" viewBox="0 0 820 632" font-family="system-ui, -apple-system, Segoe UI, sans-serif" role="img" aria-label="wat/br_table: seconds per iteration for 22 runners on a log scale, fastest first. dewasm-go is fastest at 7.65 ns, then wasmer at 8.48 ns; pywasm-pypy is slowest at 54.2 µs, a span of 7080x. The table below carries every number.">
<title>wat/br_table: seconds per iteration for 22 runners on a log scale, fastest first. dewasm-go is fastest at 7.65 ns, then wasmer at 8.48 ns; pywasm-pypy is slowest at 54.2 µs, a span of 7080x. The table below carries every number.</title>
<rect width="820" height="632" fill="#1a1a19"/>
<line x1="168.0" y1="68.0" x2="168.0" y2="602.0" stroke="#c3c2b7" stroke-width="1" stroke-opacity="0.25"/>
<text x="168.0" y="618.0" text-anchor="middle" font-size="11" fill="#c3c2b7">1 ns</text>
<line x1="284.2" y1="68.0" x2="284.2" y2="602.0" stroke="#c3c2b7" stroke-width="1" stroke-opacity="0.25"/>
<text x="284.2" y="618.0" text-anchor="middle" font-size="11" fill="#c3c2b7">10 ns</text>
<line x1="400.4" y1="68.0" x2="400.4" y2="602.0" stroke="#c3c2b7" stroke-width="1" stroke-opacity="0.25"/>
<text x="400.4" y="618.0" text-anchor="middle" font-size="11" fill="#c3c2b7">100 ns</text>
<line x1="516.6" y1="68.0" x2="516.6" y2="602.0" stroke="#c3c2b7" stroke-width="1" stroke-opacity="0.25"/>
<text x="516.6" y="618.0" text-anchor="middle" font-size="11" fill="#c3c2b7">1 µs</text>
<line x1="632.8" y1="68.0" x2="632.8" y2="602.0" stroke="#c3c2b7" stroke-width="1" stroke-opacity="0.25"/>
<text x="632.8" y="618.0" text-anchor="middle" font-size="11" fill="#c3c2b7">10 µs</text>
<line x1="168.0" y1="602.0" x2="726.0" y2="602.0" stroke="#c3c2b7" stroke-width="1" stroke-opacity="0.4"/>
<text x="152.0" y="90.0" text-anchor="end" font-size="12" fill="#ffffff">dewasm-go</text>
<line x1="168.0" y1="86.0" x2="270.6" y2="86.0" stroke="#008300" stroke-width="2" stroke-opacity="0.45"/>
<circle cx="270.6" cy="86.0" r="5.5" fill="#008300" stroke="#1a1a19" stroke-width="2"/>
<text x="806.0" y="90.0" text-anchor="end" font-size="12" font-weight="600" fill="#ffffff">7.65 ns</text>
<text x="152.0" y="114.0" text-anchor="end" font-size="12" fill="#ffffff">wasmer</text>
<line x1="168.0" y1="110.0" x2="275.8" y2="110.0" stroke="#c98500" stroke-width="2" stroke-opacity="0.45"/>
<circle cx="275.8" cy="110.0" r="5.5" fill="#c98500" stroke="#1a1a19" stroke-width="2"/>
<text x="806.0" y="114.0" text-anchor="end" font-size="12" font-weight="600" fill="#ffffff">8.48 ns</text>
<text x="152.0" y="138.0" text-anchor="end" font-size="12" fill="#ffffff">wasmtime</text>
<line x1="168.0" y1="134.0" x2="276.0" y2="134.0" stroke="#3987e5" stroke-width="2" stroke-opacity="0.45"/>
<circle cx="276.0" cy="134.0" r="5.5" fill="#3987e5" stroke="#1a1a19" stroke-width="2"/>
<text x="806.0" y="138.0" text-anchor="end" font-size="12" font-weight="600" fill="#ffffff">8.50 ns</text>
<text x="152.0" y="162.0" text-anchor="end" font-size="12" fill="#ffffff">wazero</text>
<line x1="168.0" y1="158.0" x2="278.1" y2="158.0" stroke="#c98500" stroke-width="2" stroke-opacity="0.45"/>
<circle cx="278.1" cy="158.0" r="5.5" fill="#c98500" stroke="#1a1a19" stroke-width="2"/>
<text x="806.0" y="162.0" text-anchor="end" font-size="12" font-weight="600" fill="#ffffff">8.85 ns</text>
<text x="152.0" y="186.0" text-anchor="end" font-size="12" fill="#ffffff">dewasm-java</text>
<line x1="168.0" y1="182.0" x2="282.9" y2="182.0" stroke="#008300" stroke-width="2" stroke-opacity="0.45"/>
<circle cx="282.9" cy="182.0" r="5.5" fill="#008300" stroke="#1a1a19" stroke-width="2"/>
<text x="806.0" y="186.0" text-anchor="end" font-size="12" font-weight="600" fill="#ffffff">9.75 ns</text>
<text x="152.0" y="210.0" text-anchor="end" font-size="12" fill="#ffffff">wasm3</text>
<line x1="168.0" y1="206.0" x2="333.5" y2="206.0" stroke="#c98500" stroke-width="2" stroke-opacity="0.45"/>
<circle cx="333.5" cy="206.0" r="5.5" fill="#c98500" stroke="#1a1a19" stroke-width="2"/>
<text x="806.0" y="210.0" text-anchor="end" font-size="12" font-weight="600" fill="#ffffff">26.6 ns</text>
<text x="152.0" y="234.0" text-anchor="end" font-size="12" fill="#ffffff">dewasm-pypy</text>
<line x1="168.0" y1="230.0" x2="377.1" y2="230.0" stroke="#008300" stroke-width="2" stroke-opacity="0.45"/>
<circle cx="377.1" cy="230.0" r="5.5" fill="#008300" stroke="#1a1a19" stroke-width="2"/>
<text x="806.0" y="234.0" text-anchor="end" font-size="12" font-weight="600" fill="#ffffff">63.0 ns</text>
<text x="152.0" y="258.0" text-anchor="end" font-size="12" fill="#ffffff">dewasm-ruby-zjit</text>
<line x1="168.0" y1="254.0" x2="439.4" y2="254.0" stroke="#008300" stroke-width="2" stroke-opacity="0.45"/>
<circle cx="439.4" cy="254.0" r="5.5" fill="#008300" stroke="#1a1a19" stroke-width="2"/>
<text x="806.0" y="258.0" text-anchor="end" font-size="12" font-weight="600" fill="#ffffff">217 ns</text>
<text x="152.0" y="282.0" text-anchor="end" font-size="12" fill="#ffffff">dewasm-ruby</text>
<line x1="168.0" y1="278.0" x2="439.5" y2="278.0" stroke="#008300" stroke-width="2" stroke-opacity="0.45"/>
<circle cx="439.5" cy="278.0" r="5.5" fill="#008300" stroke="#1a1a19" stroke-width="2"/>
<text x="806.0" y="282.0" text-anchor="end" font-size="12" font-weight="600" fill="#ffffff">217 ns</text>
<text x="152.0" y="306.0" text-anchor="end" font-size="12" fill="#ffffff">dewasm-ruby-yjit</text>
<line x1="168.0" y1="302.0" x2="440.3" y2="302.0" stroke="#008300" stroke-width="2" stroke-opacity="0.45"/>
<circle cx="440.3" cy="302.0" r="5.5" fill="#008300" stroke="#1a1a19" stroke-width="2"/>
<text x="806.0" y="306.0" text-anchor="end" font-size="12" font-weight="600" fill="#ffffff">221 ns</text>
<text x="152.0" y="330.0" text-anchor="end" font-size="12" fill="#ffffff">wasmedge</text>
<line x1="168.0" y1="326.0" x2="440.3" y2="326.0" stroke="#c98500" stroke-width="2" stroke-opacity="0.45"/>
<circle cx="440.3" cy="326.0" r="5.5" fill="#c98500" stroke="#1a1a19" stroke-width="2"/>
<text x="806.0" y="330.0" text-anchor="end" font-size="12" font-weight="600" fill="#ffffff">221 ns</text>
<text x="152.0" y="354.0" text-anchor="end" font-size="12" fill="#ffffff">dewasm-python</text>
<line x1="168.0" y1="350.0" x2="470.2" y2="350.0" stroke="#008300" stroke-width="2" stroke-opacity="0.45"/>
<circle cx="470.2" cy="350.0" r="5.5" fill="#008300" stroke="#1a1a19" stroke-width="2"/>
<text x="806.0" y="354.0" text-anchor="end" font-size="12" font-weight="600" fill="#ffffff">399 ns</text>
<text x="152.0" y="378.0" text-anchor="end" font-size="12" fill="#ffffff">dewasm-perl</text>
<line x1="168.0" y1="374.0" x2="510.0" y2="374.0" stroke="#008300" stroke-width="2" stroke-opacity="0.45"/>
<circle cx="510.0" cy="374.0" r="5.5" fill="#008300" stroke="#1a1a19" stroke-width="2"/>
<text x="806.0" y="378.0" text-anchor="end" font-size="12" font-weight="600" fill="#ffffff">878 ns</text>
<text x="152.0" y="402.0" text-anchor="end" font-size="12" fill="#ffffff">wasm3-ruby-yjit</text>
<line x1="168.0" y1="398.0" x2="574.1" y2="398.0" stroke="#d55181" stroke-width="2" stroke-opacity="0.45"/>
<circle cx="574.1" cy="398.0" r="5.5" fill="#d55181" stroke="#1a1a19" stroke-width="2"/>
<text x="806.0" y="402.0" text-anchor="end" font-size="12" font-weight="600" fill="#ffffff">3.13 µs</text>
<text x="152.0" y="426.0" text-anchor="end" font-size="12" fill="#ffffff">wasm3-ruby</text>
<line x1="168.0" y1="422.0" x2="622.3" y2="422.0" stroke="#d55181" stroke-width="2" stroke-opacity="0.45"/>
<circle cx="622.3" cy="422.0" r="5.5" fill="#d55181" stroke="#1a1a19" stroke-width="2"/>
<text x="806.0" y="426.0" text-anchor="end" font-size="12" font-weight="600" fill="#ffffff">8.13 µs</text>
<text x="152.0" y="450.0" text-anchor="end" font-size="12" fill="#ffffff">wasm3-pypy</text>
<line x1="168.0" y1="446.0" x2="626.0" y2="446.0" stroke="#d55181" stroke-width="2" stroke-opacity="0.45"/>
<circle cx="626.0" cy="446.0" r="5.5" fill="#d55181" stroke="#1a1a19" stroke-width="2"/>
<text x="806.0" y="450.0" text-anchor="end" font-size="12" font-weight="600" fill="#ffffff">8.75 µs</text>
<text x="152.0" y="474.0" text-anchor="end" font-size="12" fill="#ffffff">wardite-yjit</text>
<line x1="168.0" y1="470.0" x2="626.6" y2="470.0" stroke="#d55181" stroke-width="2" stroke-opacity="0.45"/>
<circle cx="626.6" cy="470.0" r="5.5" fill="#d55181" stroke="#1a1a19" stroke-width="2"/>
<text x="806.0" y="474.0" text-anchor="end" font-size="12" font-weight="600" fill="#ffffff">8.85 µs</text>
<text x="152.0" y="498.0" text-anchor="end" font-size="12" fill="#ffffff">wardite</text>
<line x1="168.0" y1="494.0" x2="671.2" y2="494.0" stroke="#d55181" stroke-width="2" stroke-opacity="0.45"/>
<circle cx="671.2" cy="494.0" r="5.5" fill="#d55181" stroke="#1a1a19" stroke-width="2"/>
<text x="806.0" y="498.0" text-anchor="end" font-size="12" font-weight="600" fill="#ffffff">21.4 µs</text>
<text x="152.0" y="522.0" text-anchor="end" font-size="12" fill="#ffffff">wasm3-python</text>
<line x1="168.0" y1="518.0" x2="674.8" y2="518.0" stroke="#d55181" stroke-width="2" stroke-opacity="0.45"/>
<circle cx="674.8" cy="518.0" r="5.5" fill="#d55181" stroke="#1a1a19" stroke-width="2"/>
<text x="806.0" y="522.0" text-anchor="end" font-size="12" font-weight="600" fill="#ffffff">23.0 µs</text>
<text x="152.0" y="546.0" text-anchor="end" font-size="12" fill="#ffffff">dewasm-bash</text>
<line x1="168.0" y1="542.0" x2="698.2" y2="542.0" stroke="#008300" stroke-width="2" stroke-opacity="0.45"/>
<circle cx="698.2" cy="542.0" r="5.5" fill="#008300" stroke="#1a1a19" stroke-width="2"/>
<text x="806.0" y="546.0" text-anchor="end" font-size="12" font-weight="600" fill="#ffffff">36.6 µs</text>
<text x="152.0" y="570.0" text-anchor="end" font-size="12" fill="#ffffff">pywasm-cpython</text>
<line x1="168.0" y1="566.0" x2="715.3" y2="566.0" stroke="#d55181" stroke-width="2" stroke-opacity="0.45"/>
<circle cx="715.3" cy="566.0" r="5.5" fill="#d55181" stroke="#1a1a19" stroke-width="2"/>
<text x="806.0" y="570.0" text-anchor="end" font-size="12" font-weight="600" fill="#ffffff">51.4 µs</text>
<text x="152.0" y="594.0" text-anchor="end" font-size="12" fill="#ffffff">pywasm-pypy</text>
<line x1="168.0" y1="590.0" x2="718.0" y2="590.0" stroke="#d55181" stroke-width="2" stroke-opacity="0.45"/>
<circle cx="718.0" cy="590.0" r="5.5" fill="#d55181" stroke="#1a1a19" stroke-width="2"/>
<text x="806.0" y="594.0" text-anchor="end" font-size="12" font-weight="600" fill="#ffffff">54.2 µs</text>
<text x="14.0" y="24" font-size="15" font-weight="600" fill="#ffffff">wat/br_table: seconds per iteration, median of the timed runs (log scale)</text>
<circle cx="19.5" cy="48.0" r="5.5" fill="#3987e5" stroke="#1a1a19" stroke-width="2"/>
<text x="31.0" y="52.0" font-size="12" fill="#c3c2b7">wasmtime (baseline)</text>
<circle cx="179.9" cy="48.0" r="5.5" fill="#008300" stroke="#1a1a19" stroke-width="2"/>
<text x="191.4" y="52.0" font-size="12" fill="#c3c2b7">dewasm backends</text>
<circle cx="313.9" cy="48.0" r="5.5" fill="#c98500" stroke="#1a1a19" stroke-width="2"/>
<text x="325.4" y="52.0" font-size="12" fill="#c3c2b7">native runtimes</text>
<circle cx="447.9" cy="48.0" r="5.5" fill="#d55181" stroke="#1a1a19" stroke-width="2"/>
<text x="459.4" y="52.0" font-size="12" fill="#c3c2b7">wasm interpreters in a host language</text>
</svg>
